<?xml version="1.0" encoding="UTF-8"?>
<svg width="20px" height="20px" viewBox="0 0 20 20" version="1.1" xmlns="http://www.w3.org/2000/svg" xmlns:xlink="http://www.w3.org/1999/xlink">
    <!-- Generator: Sketch 57.1 (83088) - https://sketch.com -->
    <title>Group 6</title>
    <desc>Created with Sketch.</desc>
    <g id="Symbols" stroke="none" stroke-width="1" fill="none" fill-rule="evenodd">
        <g id="Header-Navigation" transform="translate(-1230.000000, -83.000000)">
            <g id="Group-10" transform="translate(1230.000000, 83.000000)">
                <g id="Group-6">
                    <circle id="Oval" fill="#000000" cx="10" cy="10" r="10"></circle>
                    <g id="Group-5" transform="translate(4.000000, 4.000000)" fill="#FFFFFF" fill-rule="nonzero">
                        <polygon id="Path" points="3.44816895 7.82750633 5.6494629 7.82750633 5.6494629 6.70089501 3.30190429 6.70089501"></polygon>
                        <polygon id="Path" points="6.3505371 9.65519188 8.31115723 9.65519188 8.45742188 8.5286538 6.3505371 8.5286538"></polygon>
                        <polygon id="Path" points="9.25554199 7.82750633 11.0938477 7.82750633 11.324707 6.70089501 9.40173339 6.70089501"></polygon>
                        <polygon id="Path" points="3.68547364 9.65519188 5.6494629 9.65519188 5.6494629 8.5286538 3.53920898 8.5286538"></polygon>
                        <polygon id="Path" points="2.59497071 6.70089501 0.675292969 6.70089501 0.906152344 7.82750633 2.7411621 7.82750633"></polygon>
                        <polygon id="Path" points="6.3505371 7.82750633 8.54846192 7.82750633 8.69472656 6.70089501 6.3505371 6.70089501"></polygon>
                        <polygon id="Path" points="6.3505371 11.4829507 8.07392578 11.4829507 8.22011719 10.3562661 6.3505371 10.3562661"></polygon>
                        <polygon id="Path" points="2.83220214 8.5286538 1.04992676 8.5286538 1.28085938 9.65519188 2.97846679 9.65519188"></polygon>
                        <polygon id="Path" points="9.0182373 9.65519188 10.7191406 9.65519188 10.9500732 8.5286538 9.16450196 8.5286538"></polygon>
                        <path d="M8.78093261,11.4829507 L9.89362792,11.4829507 C10.1561279,11.4829507 10.382373,11.2983071 10.4351074,11.041227 L10.5754395,10.3562661 L8.92719727,10.3562661 L8.78093261,11.4829507 Z" id="Path"></path>
                        <path d="M1.42456054,10.3562661 L1.56489259,11.041227 C1.61762696,11.2983071 1.84387208,11.4829507 2.10637208,11.4829507 L3.21577148,11.4829507 L3.06950683,10.3562661 L1.42456054,10.3562661 Z" id="Path"></path>
                        <polygon id="Path" points="3.80895996 10.6062417 3.92277833 11.4829507 5.6494629 11.4829507 5.6494629 10.3562661 3.77644043 10.3562661"></polygon>
                        <path d="M5.74643554,0.445792463 C5.78847656,0.256754382 5.66938478,0.0694008758 5.48056641,0.0272866133 C5.29138183,-0.0146811742 5.1041748,0.104337395 5.06213379,0.293302238 L4.29096679,3.75421532 L5.00917969,3.75421532 L5.74643554,0.445792463 Z" id="Path"></path>
                        <path d="M7.01484375,3.75421532 L7.73056641,3.75421532 L7.01945801,0.28026512 C6.98063964,0.0906411008 6.79533692,-0.031526868 6.6057129,0.00714500702 C6.41601563,0.0459633758 6.29370116,0.231266101 6.33251953,0.42089012 L7.01484375,3.75421532 Z" id="Path"></path>
                        <path d="M11.7486328,4.45536278 L0.251367187,4.45536278 C0.112646475,4.45536278 0,4.56786278 0,4.70672996 L0,5.79020164 C0,5.92906883 0.112646475,6.04171532 0.251367187,6.04171532 L11.7486328,6.04171532 C11.8873535,6.04171532 12,5.92906883 12,5.79020164 L12,4.70672996 C12,4.56786278 11.8873535,4.45536278 11.7486328,4.45536278 Z" id="Path"></path>
                    </g>
                </g>
            </g>
        </g>
    </g>
</svg>