<?xml version="1.0" encoding="UTF-8"?>
<svg width="33px" height="33px" viewBox="0 0 33 33" version="1.1" xmlns="http://www.w3.org/2000/svg" xmlns:xlink="http://www.w3.org/1999/xlink">
    <!-- Generator: Sketch 57.1 (83088) - https://sketch.com -->
    <title>Group 3</title>
    <desc>Created with Sketch.</desc>
    <defs>
        <polygon id="path-1" points="0 0 33 0 33 33 0 33"></polygon>
    </defs>
    <g id="Desktop" stroke="none" stroke-width="1" fill="none" fill-rule="evenodd">
        <g id="Outlet-" transform="translate(-978.000000, -757.000000)">
            <g id="Group-4" transform="translate(978.000000, 639.000000)">
                <g id="Group-3" transform="translate(0.000000, 118.000000)">
                    <mask id="mask-2" fill="white">
                        <use xlink:href="#path-1"></use>
                    </mask>
                    <g id="Clip-2"></g>
                    <path d="M17.3688102,5.2128613 L15.6274557,5.2128613 L15.6274557,17.183957 L15.5202778,17.3651132 L26.0495183,23.4430876 L26.9183285,21.9383453 L17.3688102,16.4260587 L17.3688102,5.2128613 Z M16.5,33 C7.38673538,33 0,25.6132646 0,16.5 C0,7.38673538 7.38673538,0 16.5,0 C25.6132646,0 33,7.38673538 33,16.5 C32.996266,25.6132646 25.6095306,33 16.5,33 L16.5,33 Z" id="Fill-1" fill="#000000" mask="url(#mask-2)"></path>
                </g>
            </g>
        </g>
    </g>
</svg>