<?xml version="1.0" encoding="UTF-8"?>
<svg width="60px" height="57px" viewBox="0 0 60 57" version="1.1" xmlns="http://www.w3.org/2000/svg" xmlns:xlink="http://www.w3.org/1999/xlink">
    <!-- Generator: Sketch 57.1 (83088) - https://sketch.com -->
    <title>Group 3</title>
    <desc>Created with Sketch.</desc>
    <defs>
        <polygon id="path-1" points="9.09494702e-13 0 60 0 60 57 9.09494702e-13 57"></polygon>
    </defs>
    <g id="Desktop" stroke="none" stroke-width="1" fill="none" fill-rule="evenodd">
        <g id="Mayfield_Home" transform="translate(-624.000000, -4051.000000)">
            <g id="Group-2" transform="translate(40.000000, 4007.000000)">
                <g id="Group-3" transform="translate(584.000000, 44.000000)">
                    <mask id="mask-2" fill="white">
                        <use xlink:href="#path-1"></use>
                    </mask>
                    <g id="Clip-2"></g>
                    <path d="M48.5337672,55.4533366 C48.1866907,55.8476938 47.7248438,56.3014843 47.2208222,56.3014843 C46.9007098,56.3014843 46.5716093,56.1126963 46.2432002,55.7400147 C45.1127816,54.4576546 44.7829897,52.14605 45.1750064,51.3727184 C45.3208892,51.0846418 45.4377337,51.0846418 45.4805997,51.0846418 C45.6831763,51.0846418 45.9936093,51.2909102 46.2971285,51.4901865 C46.6711691,51.7384078 47.0569634,51.9943204 47.4821667,52.0607458 C48.4307505,52.2124755 48.8760041,51.1063175 49.1283605,50.467235 C49.214784,50.2483808 49.3081213,50.1931428 49.3191835,50.1875491 C49.3385424,50.1987365 49.3952361,50.2819431 49.3938534,50.4567468 C49.3910878,50.6804956 49.3537529,50.8294284 49.3143438,50.9881501 C49.2417481,51.2776251 49.1656955,51.5768891 49.3544443,52.1383587 C49.5480328,52.7194063 49.0039108,54.9191364 48.5337672,55.4533366 M50.0852409,50.4630397 C50.0880065,50.1518891 49.9932864,49.8826914 49.8176739,49.7022939 C49.6842361,49.565947 49.5086237,49.4890334 49.3260974,49.4890334 C48.9783294,49.4890334 48.6630567,49.7582311 48.4867529,50.2071271 C48.3360304,50.5854024 48.0276715,51.3692223 47.5927888,51.3692223 L47.5886404,51.3692223 C47.3100112,51.3251717 46.9878246,51.111212 46.6746261,50.9049436 C46.2708557,50.6371443 45.887827,50.3847277 45.4799084,50.3847277 C45.0934227,50.3847277 44.7829897,50.6098749 44.5575973,51.0524779 C44.0037959,52.1474485 44.4331476,54.7394382 45.7253509,56.2049926 C46.1913462,56.7322007 46.6932935,57 47.2194395,57 C48.000016,57 48.6070543,56.42105 49.0495424,55.9169161 C49.6517409,55.2323847 50.3057936,52.8033121 50.0071141,51.9132115 C49.8840471,51.5468229 49.9227648,51.4006869 49.983607,51.1587586 C50.0271644,50.9874509 50.0810926,50.7720927 50.0852409,50.4630397 M59.2896836,28.4930079 C59.2495831,28.988052 59.2523486,29.5677012 59.2551142,30.1823111 C59.2647936,32.3128189 59.27793,34.9635427 57.666997,37.0122424 C57.0620328,37.7834764 56.4757362,38.4826914 55.9371453,39.1238714 C54.5232577,40.8089794 53.4066668,42.1395854 53.0955424,43.4009691 L53.0478366,43.5904563 C52.6592768,45.1720805 52.2561979,46.8082434 50.5076787,46.8998405 C49.147028,46.9704612 48.4985065,47.5654931 48.0262888,47.9997056 C47.7089419,48.290579 47.5167361,48.4555937 47.2498605,48.4744725 L47.2021548,48.475871 C46.9103892,48.475871 46.7416907,48.2814892 46.469284,47.9381747 C46.1948031,47.5927625 45.8525663,47.1620461 45.2372313,47.0557655 C45.1238438,47.0368867 45.0042337,47.0270976 44.8777098,47.0270976 C44.5728079,47.0270976 44.2506213,47.0774411 43.9090758,47.1305815 C43.5530112,47.1851202 43.185193,47.2424558 42.8270543,47.2424558 C42.2774012,47.2424558 41.8598031,47.1054097 41.5113437,46.8068449 C41.119327,46.471921 40.7127911,46.2320903 40.3532696,46.0202282 C39.5319011,45.5370707 39.037559,45.2447988 39.0866475,44.249816 C39.1550949,42.9066241 38.8695519,42.6192468 38.2058198,42.2801276 C38.0274418,42.1899289 37.8234825,42.086445 37.5953246,41.9102429 C36.8797384,41.3557655 36.8859609,40.7970927 36.894949,39.8727306 L36.8977145,39.5944431 C36.8990973,39.3392296 36.8299585,39.1399534 36.6937552,39.0001104 C36.6114801,38.917603 36.4655973,38.8169161 36.2332911,38.8169161 C35.5322241,38.8169161 34.4508939,39.805606 33.9821332,40.5146099 C33.9254394,40.6020118 33.8618317,40.6369725 33.7629633,40.6369725 C33.1649131,40.6369725 31.9480709,39.4028582 31.5581284,37.7631992 C31.1688772,36.1186457 29.5503389,35.1327527 27.1201116,35.0593351 C26.9742288,35.0551398 26.8138269,35.052343 26.6437456,35.052343 C25.8617862,35.052343 18.95759,35.1397448 17.6384225,38.1673454 C17.5886426,38.2806183 17.546468,38.4050785 17.5029106,38.5344333 C17.36809,38.9357826 17.2519369,39.2825932 16.8419441,39.476975 C16.5024728,39.6391928 16.2418196,39.6182164 15.8484201,39.6000368 C15.4875158,39.5839549 15.0332742,39.5643768 14.3778388,39.6328999 C14.1372359,39.655974 14.0079464,39.6398921 13.9028555,39.6245093 C13.7355397,39.6014352 13.5827431,39.5944431 13.3884632,39.6384936 C13.1291928,39.6958292 12.9881498,39.8559495 12.8955038,39.9622301 C12.872688,39.9881011 12.8540206,40.0356477 12.7648316,40.0258587 C12.1080134,39.8664377 11.673822,40.039843 11.4878388,40.4964303 C11.4090206,40.6901129 11.4484297,40.8872915 11.4774679,41.0306305 C11.4795421,41.041818 11.4816163,41.0537046 11.4843818,41.0648921 C11.452578,41.0620952 11.406255,41.0474117 11.3606234,41.0320289 C11.2748914,41.0047596 11.1691091,40.970498 11.0467335,40.970498 C10.6173818,40.970498 10.428633,41.3788395 10.3670995,41.5130888 C10.1762765,41.9277233 9.34384592,42.1829367 8.65937223,42.2130029 C7.69212103,42.2570535 6.15101815,41.9850589 5.54121431,41.1138371 C5.41330761,40.9299436 5.42367843,40.8614205 5.42367843,40.8600221 C5.43128369,40.8159715 5.58062341,40.7110893 5.6587502,40.6551521 C5.86962341,40.5062193 6.15724063,40.3027478 6.23260188,39.9342615 C6.35221193,39.3483194 6.20632915,37.4744235 4.99294398,35.7186948 C4.45366168,34.9376717 4.03122387,33.8545878 3.62330521,32.8071639 C3.1179009,31.5101202 2.64015209,30.2850957 1.95360424,29.6704858 C0.922745384,28.7503189 0.635128157,27.9287414 0.695970263,27.7791094 C0.756812368,27.6959028 0.933807585,27.7826055 1.0831473,27.8413395 C1.20967122,27.8909838 1.31821907,27.9336359 1.43713773,27.9336359 L1.67359228,27.9091634 L1.77730041,27.7609298 C1.91903486,27.5567591 1.82777171,27.3001472 1.78421429,27.1763862 L1.69433391,26.9302625 C1.35417122,26.0114941 0.44983629,23.5705348 1.02921907,21.8357826 C1.23594395,21.2141806 1.37283869,21.1344701 1.36592481,21.1330716 C1.39703725,21.1351693 1.48415209,21.1820167 1.54153725,21.2127821 C1.6832717,21.2889966 1.85888415,21.3833906 2.07597984,21.3833906 C2.34285544,21.3833906 2.58553248,21.2386531 2.79640568,20.9533734 C3.53549899,19.9527969 4.57258034,18.8690137 5.01575976,18.6340775 C5.08766407,18.5956207 5.13467843,18.5914254 5.16233393,18.5914254 C5.23700379,18.5914254 5.32826694,18.6312807 5.43404924,18.6767296 C5.58961144,18.7438543 5.78319996,18.8277601 6.02518561,18.8277601 C6.33285308,18.8277601 6.64605164,18.6907139 6.97930045,18.4082311 C7.71770237,17.7838322 7.83385548,17.7418793 8.39180524,17.5412046 C8.54321912,17.4866658 8.72297989,17.4216389 8.95182917,17.3335378 C9.20487702,17.2349485 9.48074066,17.1636286 9.77250621,17.0874141 C10.7093364,16.8440873 11.7699249,16.5678974 12.1453483,15.2925294 C12.4122239,14.3870461 12.5719345,14.2444063 12.7129775,14.1178484 C12.799401,14.0402355 12.9079488,13.9437439 13.0158053,13.7640456 C13.1762072,13.4976447 13.1430206,13.1522326 13.1049943,12.7536801 C13.0565971,12.2481477 13.0019775,11.6754907 13.3608077,11.3118989 C13.4900971,11.1811457 13.5571617,11.1748528 13.5696067,11.1748528 C13.5716809,11.1748528 13.8129751,11.2021222 14.1164943,12.1551521 C14.2423268,12.5502085 14.4801641,12.6089426 14.6122192,12.6089426 C14.7145445,12.6089426 14.8659584,12.5725834 15.0014704,12.3991781 C15.2697287,12.0558636 15.4328962,11.1510795 15.2565924,10.2372056 C15.3921043,10.2854514 15.5462838,10.3309004 15.7073771,10.3309004 C15.9970684,10.3309004 16.2307574,10.1819676 16.3648866,9.91067223 C16.4990158,9.64007605 16.4222718,9.36668302 16.3552072,9.12615309 C16.2203866,8.64649166 16.0682814,8.10320167 17.3922886,7.16275761 C18.2703508,6.5390579 18.8849943,6.178263 19.4332646,6.178263 C20.0465254,6.178263 20.7068005,6.62995584 21.8669489,7.58018891 C22.1967407,7.85008587 22.6613532,8.01719823 23.0810254,8.01719823 C23.4481522,8.01719823 23.747523,7.88994112 23.9452599,7.6501104 C24.163047,7.38440873 24.2314943,7.01452404 24.1471451,6.55094455 C24.018547,5.85592493 24.7403556,5.09867517 25.3197384,4.49035819 C25.6965446,4.09530177 26.0221881,3.75408489 26.1466379,3.42055937 C26.4681331,2.56192345 25.872157,2.28153827 25.617035,2.16127331 C25.6073556,2.15707802 25.5962934,2.1514843 25.5852312,2.14658979 C25.7152121,1.90186457 26.1086116,1.43758587 26.5621618,1.43758587 C26.7896283,1.43758587 27.0143293,1.56064769 27.231425,1.80397448 C27.7693245,2.40669774 28.1571929,2.66400883 28.5277767,2.66400883 C28.9412264,2.66400883 29.1845949,2.35006133 29.3996164,2.07387144 C29.4701379,1.9829735 29.5441164,1.88648184 29.6298484,1.79558391 C30.0509035,1.34249264 31.1612719,2.17595682 31.5754131,2.57870461 C31.9058963,2.9017419 32.3172719,3.07235034 32.7645997,3.07235034 C33.2402743,3.07235034 33.6682432,2.88146467 33.8894872,2.71714917 C34.0505805,2.59898184 34.3907432,2.61226693 34.7495734,2.6486261 C34.9265686,2.66610648 35.1049466,2.68358685 35.2777935,2.68358685 C35.5799298,2.68358685 35.8150016,2.63254416 36.0908652,2.51297841 C36.1537815,2.51297841 36.2415877,2.53675172 36.2809968,2.60247792 C36.3432217,2.70526251 36.3051954,2.9157262 36.181437,3.16464671 L36.0645925,3.39608685 C35.5868437,4.34002699 35.2100375,5.08469087 35.8163844,5.6063052 C35.8633987,5.64616045 35.8744609,5.75383955 35.846114,5.88179588 C35.790803,6.12232581 35.6290183,6.30831698 35.5792384,6.32509814 C35.5163222,6.3188052 35.4347384,6.31460991 35.3365614,6.31460991 C34.9542241,6.31460991 34.0332958,6.37544161 33.7512097,6.93551276 C33.6495757,7.13828508 33.5949561,7.47390824 33.9185255,7.92630029 C34.2821954,8.43532875 35.0150662,8.79472522 35.9429083,9.25061335 C37.0422145,9.79040726 38.4097791,10.4623528 39.4890351,11.5915849 C40.1264944,12.2579367 40.7432122,12.5963567 41.3225949,12.5963567 C42.4059992,12.5963567 42.985382,11.4825074 43.2335902,10.8182532 C43.4831811,10.1484053 43.8613701,7.13478901 44.0127839,5.86990922 C44.1462217,4.74487242 45.0996452,1.10965407 45.4059299,0.702710991 C45.531071,0.722289009 45.8905926,1.1767787 45.9873868,1.92773553 C46.1063055,2.8220314 46.5501763,3.89392787 46.9083151,4.75536065 C47.0002696,4.97771099 47.0866931,5.18467861 47.1572146,5.36647448 C47.2643797,5.64406281 47.1662026,5.89018646 47.0528151,6.17476693 C46.9034754,6.55024534 46.6981332,7.06486752 47.1897098,7.56061089 C47.3922864,7.76548086 47.6169873,7.86896467 47.858973,7.86896467 C48.2074323,7.86896467 48.488827,7.65500491 48.7128366,7.48299804 C48.7674562,7.44034593 48.8421261,7.38370952 48.8960543,7.34665113 C49.2652553,7.95077282 50.081784,10.7965775 50.3023366,12.7732581 C50.5380998,14.8792934 50.6556357,15.9365064 52.4083031,16.8077282 C53.8221907,17.5097399 54.0060998,17.9935967 54.4997505,19.2850466 L54.5280974,19.3619603 C54.8979898,20.3296737 55.4421118,20.9072252 55.9226261,21.4169529 C56.1673773,21.6777601 56.3996835,21.9245829 56.5974204,22.2070658 C56.8103678,22.5091266 56.8241955,22.6986138 56.8470113,22.985292 C56.8822721,23.4090162 56.9258295,23.9369235 57.5902529,24.8591879 C57.8612769,25.2360648 58.1191644,25.5346295 58.3473223,25.7982336 C59.031796,26.586948 59.4086022,27.0225589 59.2896836,28.4930079 M58.8665544,25.3353533 C58.6480759,25.0829367 58.4005592,24.7962586 58.1482027,24.4452527 C57.5985496,23.68171 57.5660544,23.2971418 57.5363247,22.9251595 C57.5093606,22.5972277 57.4810137,22.2588077 57.1615926,21.8008219 C56.9341261,21.4763862 56.673473,21.1994971 56.4224993,20.9316977 C55.9661835,20.4464426 55.4932745,19.9451055 55.1738534,19.1067468 L55.1441237,19.0298332 C54.6276572,17.6782507 54.3683869,17.0000123 52.7125137,16.1763371 C51.2986261,15.4743253 51.2211907,14.7730128 50.9888845,12.69145 C50.8879419,11.7992517 49.9545687,6.65582679 48.9679586,6.60408489 C48.7100711,6.60408489 48.4991979,6.76560353 48.2938557,6.92222767 C48.144516,7.03689892 47.9737433,7.16695289 47.8575902,7.16695289 C47.8389227,7.16695289 47.7794634,7.16695289 47.677138,7.06346909 C47.52365,6.90894259 47.5416261,6.81315015 47.6923486,6.43347645 C47.8264778,6.10065015 48.0069299,5.64476202 47.7981309,5.10776497 C47.7255352,4.92107458 47.6384203,4.70991168 47.5437002,4.48196762 C47.2021548,3.65899166 46.7769514,2.63394259 46.6718605,1.8326423 C46.5543246,0.932053484 46.0489203,0 45.4066213,0 C45.2012792,0 45.0076907,0.0999877331 44.8645734,0.281084396 C44.3888988,0.884506869 43.4430806,4.79171982 43.3255447,5.78180815 C43.087016,7.77457066 42.7669036,10.0777846 42.5850686,10.5665358 C42.4357289,10.9650883 42.0139825,11.8929465 41.3212122,11.8929465 C40.9423318,11.8929465 40.4804849,11.6195535 39.98476,11.1014352 C38.8197719,9.88340285 37.3920566,9.18209028 36.2429705,8.61782385 C35.4368126,8.22136899 34.7378198,7.87875368 34.4771667,7.51236506 C34.3596308,7.34874877 34.3568652,7.2655422 34.3658533,7.25015947 C34.413559,7.15226938 34.7875997,7.01032875 35.3344872,7.01032875 C35.4043174,7.01032875 35.4637767,7.01312561 35.569559,7.02081698 C35.9864657,7.02081698 36.3176404,6.61736997 36.4635231,6.21741904 C36.6322217,5.75244112 36.5575518,5.32382237 36.2623293,5.07070658 C36.0811858,4.91478165 36.2906762,4.47497547 36.6778533,3.71143278 L36.7960805,3.47859421 C37.1058222,2.86118744 37.005571,2.46123651 36.8679849,2.23399166 C36.6419011,1.86131011 36.0777289,1.70748283 35.7078365,1.89906771 C35.5121738,2.00045388 35.160949,1.98437193 34.8152552,1.94941119 C34.6410255,1.93193081 34.4695614,1.91514966 34.3050112,1.91514966 C34.0865327,1.91514966 33.7643461,1.93962218 33.4808772,2.14868744 C33.3979107,2.21021835 33.1068365,2.36894014 32.7632169,2.36894014 C32.4949585,2.36894014 32.2557384,2.2689524 32.0531619,2.0717738 C31.8623389,1.88508342 30.8619011,0.954428361 29.9624059,0.954428361 C29.6346882,0.954428361 29.3449968,1.07749019 29.1272097,1.31102797 C29.0269585,1.41870707 28.9384609,1.53128067 28.8554944,1.63826055 C28.7379585,1.78999019 28.6045207,1.96129784 28.5270853,1.96129784 C28.4752312,1.96129784 28.2650494,1.91584887 27.7437432,1.33200442 C27.3904441,0.936248773 26.9928963,0.734874877 26.5614704,0.734874877 C25.77398,0.734874877 25.128224,1.43199215 24.9221905,1.92703631 C24.7811475,2.26685476 24.8717192,2.46263494 24.9726618,2.56751717 C25.0763699,2.67519627 25.208425,2.7374264 25.3245781,2.79196516 C25.583157,2.91362856 25.5928365,2.91852306 25.4988077,3.16954122 C25.4241379,3.36881747 25.1178532,3.69045633 24.8212479,4.00160697 C24.1319345,4.72529441 23.2732312,5.62588322 23.4654369,6.67470559 C23.5096857,6.91733317 23.4910183,7.10332434 23.4128915,7.19911678 C23.3347647,7.29421001 23.1881905,7.31378803 23.080334,7.31378803 C22.8196809,7.31378803 22.5071738,7.20051521 22.3011403,7.03200442 C20.9854297,5.95451423 20.2587814,5.47415358 19.4325733,5.47415358 C18.7017766,5.47415358 17.9848077,5.88179588 16.9940493,6.5859053 C15.4031665,7.71723503 15.486133,8.58635918 15.6887096,9.31144504 C15.7156737,9.40863592 15.7564656,9.55477184 15.7059943,9.62679097 C15.6237192,9.62679097 15.4909728,9.57574828 15.3838077,9.53519382 C15.0934249,9.42471786 14.7788436,9.38975711 14.6129105,9.60231845 C14.4684105,9.78830962 14.5022885,10.0393278 14.5493029,10.2365064 C14.6626905,10.7175662 14.653011,11.1545756 14.6059967,11.4692223 C14.3937407,10.9587954 14.0743196,10.4707434 13.5689153,10.4707434 C13.3303866,10.4707434 13.0953148,10.5861138 12.8713053,10.8126595 C12.2815517,11.4090898 12.3596785,12.2222767 12.4163723,12.8159102 C12.4364225,13.0172841 12.4654608,13.3207434 12.4246689,13.3955594 C12.3707407,13.4850589 12.3244177,13.5270118 12.2545876,13.5892419 C11.9994656,13.8164868 11.7809871,14.071001 11.4823077,15.0883587 C11.2181976,15.9847522 10.4680421,16.1798332 9.59965932,16.4056796 C9.30167128,16.4832924 8.99400381,16.5637022 8.70292965,16.6762758 C8.48237701,16.7622792 8.30676457,16.8252085 8.15949902,16.8783489 C7.51996552,17.1083906 7.33882198,17.1888003 6.53542963,17.867738 C6.18282197,18.1656035 5.98508513,18.1516192 5.70576455,18.0299558 C5.44234589,17.9152846 5.06139134,17.8166953 4.69357316,18.0103778 C4.0851521,18.3334151 2.96925257,19.5451546 2.24122147,20.5303484 C2.16586022,20.633133 2.10363534,20.6792812 2.07528845,20.6792812 C2.03103965,20.6792812 1.9390851,20.6296369 1.86510663,20.5904809 C1.73166883,20.5184617 1.56504443,20.4296614 1.36592481,20.4296614 C0.837013326,20.4296614 0.567372176,21.0260918 0.372400883,21.6085378 C-0.266441227,23.5236874 0.597101841,25.9555569 1.0105516,27.0777969 C0.694587488,27.0008832 0.339905667,27.0833906 0.138711886,27.3588813 C-0.332123045,28.002159 0.464355429,29.2698356 1.4945229,30.1907017 C2.05662099,30.6934372 2.50464013,31.8429465 2.97824061,33.0588813 C3.4013698,34.144762 3.83832674,35.2656035 4.4246234,36.1151497 C5.62418082,37.8506011 5.60689613,39.5301153 5.55365929,39.7888248 C5.53360905,39.8860157 5.40155403,39.9797105 5.26120235,40.0782998 C5.05516886,40.2244357 4.79797268,40.4062316 4.7412789,40.736261 C4.69979565,40.9739941 4.77653967,41.2292076 4.97565929,41.5130888 C5.69677652,42.5458292 7.2489416,42.9143155 8.46163539,42.9143155 C8.53976218,42.9143155 8.61581481,42.9115186 8.68771912,42.909421 C9.36804448,42.8793548 10.6180732,42.6122547 10.9914225,41.8053606 C11.0301402,41.7221541 11.0591785,41.6822988 11.0612526,41.6690137 C11.0854512,41.6746075 11.1241689,41.6871933 11.151133,41.6962831 C11.2437789,41.7249509 11.3502526,41.7606109 11.5528292,41.7606109 C11.7955062,41.7417321 11.9669703,41.6606232 12.0775923,41.5130888 C12.2359201,41.3012267 12.1861402,41.0530054 12.153645,40.8886899 C12.1439656,40.8404441 12.128755,40.7656281 12.1259895,40.7586359 C12.1460397,40.7082924 12.1653986,40.661445 12.3216522,40.661445 C12.3977048,40.661445 12.4938077,40.6754293 12.6030469,40.7013003 C13.0344727,40.8061825 13.2889034,40.5621565 13.411279,40.4230128 C13.4783436,40.3474975 13.4997766,40.3258219 13.5350373,40.3181305 C13.7383053,40.2719823 13.7362311,40.3041462 13.807444,40.3139352 C13.9498699,40.3342125 14.1192598,40.358685 14.4455948,40.3251227 C15.0602383,40.2621933 15.4812933,40.2810721 15.8179991,40.2950564 C16.2715493,40.3139352 16.6110206,40.3565873 17.134401,40.1062684 C17.8098866,39.7853288 18.010389,39.1909961 18.1555804,38.7553852 C18.192224,38.6477061 18.2281761,38.5414254 18.2696594,38.445633 C19.259035,36.1731845 24.8233221,35.6872301 27.0972958,35.755054 C28.0887456,35.7851202 30.4415374,36.0571148 30.8847169,37.9226202 C31.3078461,39.7077159 32.6788676,41.3326914 33.7608891,41.3326914 C34.0899896,41.3326914 34.3727671,41.1795633 34.5552935,40.9005765 C35.0088437,40.2132483 35.9124872,39.5140334 36.190425,39.476975 C36.190425,39.476975 36.2042528,39.5070412 36.2042528,39.5895486 L36.2014872,39.8622424 C36.190425,40.8453386 36.1821284,41.6948847 37.1721954,42.4626227 C37.4522073,42.6800785 37.6962672,42.8038395 37.8919298,42.9038273 C38.3281954,43.1247792 38.4457313,43.1849117 38.3945686,44.2120584 C38.3226643,45.6335623 39.1786021,46.1362978 40.0041188,46.6236506 C40.353961,46.829919 40.7169394,47.0452772 41.0626332,47.3396467 C41.5369251,47.7430937 42.1135423,47.9395731 42.8249801,47.9395731 C43.2356643,47.9395731 43.6297552,47.8780422 44.0120926,47.8193081 C44.4331476,47.7535819 44.8141021,47.688555 45.1203868,47.7430937 C45.4764514,47.8053238 45.6873246,48.0682287 45.9286189,48.3723871 C46.2127792,48.7289868 46.5633127,49.172289 47.200772,49.172289 L47.2927266,49.1687929 C47.8140328,49.1345314 48.156961,48.8191855 48.4895184,48.5143278 C48.9292409,48.1101816 49.42704,47.652895 50.5415567,47.5941609 C52.8010113,47.4766928 53.3098725,45.4140088 53.7177912,43.7568695 L53.7648055,43.5680815 C54.0379036,42.4647203 55.108863,41.1879539 56.4632912,39.5734666 C57.0067218,38.9245952 57.5971668,38.2204858 58.2069706,37.4443572 C59.9693175,35.2033734 59.9547984,32.2974362 59.945119,30.1753189 C59.9423534,29.5774902 59.9395879,29.0118253 59.9769228,28.5468474 C60.1214228,26.7848258 59.5676214,26.1450442 58.8665544,25.3353533" id="Fill-1" fill="#000000" mask="url(#mask-2)"></path>
                </g>
            </g>
        </g>
    </g>
</svg>