<?xml version="1.0" encoding="UTF-8"?>
<svg width="28px" height="28px" viewBox="0 0 28 28" version="1.1" xmlns="http://www.w3.org/2000/svg" xmlns:xlink="http://www.w3.org/1999/xlink">
    <!-- Generator: Sketch 57.1 (83088) - https://sketch.com -->
    <title>fb</title>
    <desc>Created with Sketch.</desc>
    <g id="Symbols" stroke="none" stroke-width="1" fill="none" fill-rule="evenodd">
        <g id="Footer" transform="translate(-1250.000000, -59.000000)" fill="#000000" fill-rule="nonzero">
            <g id="fb" transform="translate(1250.000000, 59.000000)">
                <path d="M28,14 C28,6.26815686 21.7317974,0 14,0 C6.26815686,0 0,6.26815686 0,14 C0,21.7317974 6.26815686,28 14,28 C21.7317974,28 28,21.7317974 28,14 Z M10.2403595,14 L10.2403595,11.3209216 L11.8821569,11.3209216 L11.8821569,9.70071895 C11.8821569,7.51543791 12.5350784,5.94107843 14.9277974,5.94107843 L17.7735948,5.94107843 L17.7735948,8.61379739 L15.7703595,8.61379739 C14.7661569,8.61379739 14.5383137,9.28071895 14.5383137,9.97943791 L14.5383137,11.3208758 L17.6259542,11.3208758 L17.204719,14 L14.5384052,14 L14.5384052,22.0805163 L11.8821569,22.0805163 L11.8821569,14 L10.2403595,14 Z" id="Shape"></path>
            </g>
        </g>
    </g>
</svg>