<?xml version="1.0" encoding="UTF-8"?>
<svg width="37px" height="61px" viewBox="0 0 37 61" version="1.1" xmlns="http://www.w3.org/2000/svg" xmlns:xlink="http://www.w3.org/1999/xlink">
    <!-- Generator: Sketch 57.1 (83088) - https://sketch.com -->
    <title>Group 16</title>
    <desc>Created with Sketch.</desc>
    <defs>
        <polygon id="path-1" points="0 0.18924186 36.9185343 0.18924186 36.9185343 61 0 61"></polygon>
    </defs>
    <g id="Desktop" stroke="none" stroke-width="1" fill="none" fill-rule="evenodd">
        <g id="Mayfield_Home" transform="translate(-1248.000000, -4048.000000)">
            <g id="Group-2" transform="translate(40.000000, 4007.000000)">
                <g id="Group-16" transform="translate(1208.000000, 41.000000)">
                    <g id="Group-3">
                        <mask id="mask-2" fill="white">
                            <use xlink:href="#path-1"></use>
                        </mask>
                        <g id="Clip-2"></g>
                        <path d="M34.9835276,25.826634 C34.8032216,25.8394014 34.6215351,25.8484805 34.4404007,25.8589781 C34.4489604,25.7403828 34.4561396,25.6206526 34.4622142,25.5029084 C34.4889978,25.0063967 34.5185425,24.4956991 34.6919455,24.0797642 C34.9608858,24.0227363 35.1848187,23.9623037 35.3681619,23.8981828 C35.2127067,24.3339781 35.1859231,24.8287874 35.1605201,25.3094107 C35.150856,25.4847502 35.1403634,25.6504433 35.1257291,25.811313 C35.0785127,25.8158526 35.0299157,25.8232293 34.9835276,25.826634 L34.9835276,25.826634 Z M26.8159157,25.9299084 C26.8222664,25.8527363 26.8280649,25.7749967 26.8330351,25.6989595 C26.8578858,25.3340944 26.8899157,24.9615688 27.0359828,24.6520293 C27.1646545,24.6463549 27.2938784,24.6443688 27.4222739,24.6375595 C27.5037291,24.6327363 27.6428933,24.627913 27.8281694,24.6222386 C27.6956321,24.9547595 27.6688485,25.3218944 27.64455,25.6793828 C27.6381993,25.7693223 27.6324007,25.8561409 27.6249455,25.9406898 C27.4634157,25.9387037 27.3013336,25.936434 27.140356,25.9341642 C27.0329455,25.9327456 26.9238784,25.931327 26.8159157,25.9299084 L26.8159157,25.9299084 Z M23.8233336,25.9057921 C23.8318933,25.8118805 23.8390724,25.7174014 23.8454231,25.6240572 C23.8664082,25.3125316 23.8884978,24.9933456 23.9851396,24.7141642 C24.0712888,24.7144479 24.1574381,24.7158665 24.2435873,24.7158665 C24.4236172,24.7158665 24.603647,24.7110433 24.7836769,24.7096247 C24.7000127,24.9964665 24.677647,25.3023177 24.6574903,25.601927 C24.6500351,25.7077549 24.6420276,25.8087595 24.6326396,25.9072107 C24.3628709,25.9057921 24.0936545,25.9057921 23.8233336,25.9057921 L23.8233336,25.9057921 Z M21.3327366,25.9398386 C21.2093112,25.9438107 21.0878187,25.9497688 20.9643933,25.9537409 C20.9693634,25.8836619 20.9743336,25.8132991 20.9784754,25.7440712 C21.0011172,25.3735316 21.026244,24.9941967 21.1438709,24.6682014 C21.3296993,24.6730247 21.5158037,24.6778479 21.7019082,24.6821037 C21.6049903,25.0052619 21.5815201,25.354806 21.560259,25.6961223 C21.5550127,25.7781177 21.5497664,25.8572758 21.5436918,25.9355828 C21.4735575,25.9375688 21.4025948,25.9378526 21.3327366,25.9398386 L21.3327366,25.9398386 Z M22.2072067,39.0003642 C22.459856,39.4392805 22.7133336,39.865713 22.9637739,40.2867549 C24.2344754,42.4248758 25.4350425,44.4441177 25.8768336,47.0730758 C26.2747216,49.4429967 26.2473858,51.2888851 25.7793634,53.6573874 L25.7219306,53.9527409 C25.491647,55.1386944 25.2925649,56.1632107 24.5843187,57.1253084 C24.2411022,57.5911781 23.8456993,58.0340665 23.4632739,58.4622014 C23.0537888,58.9212619 22.6302216,59.3953595 22.2566321,59.9111642 C22.2350948,59.9409549 22.2207366,59.9741502 22.2121769,60.0084805 C21.8697888,60.1608386 21.414744,60.1821177 20.9724007,60.2022619 C20.8194306,60.2093549 20.6681172,60.2161642 20.5226022,60.2280805 C20.2832067,60.2473735 20.0374604,60.2700712 19.7881246,60.2930526 C18.2147963,60.4386014 16.4374157,60.6003223 14.9946918,60.0246526 C14.9869604,59.9849316 14.9726022,59.9460619 14.9474754,59.9111642 C14.5744381,59.3956433 14.151147,58.9215456 13.7413858,58.4627688 C13.3589604,58.034634 12.9632813,57.5914619 12.620341,57.1253084 C11.9115425,56.1632107 11.7127366,55.1386944 11.482453,53.9527409 L11.4250201,53.6571037 C10.9564455,51.2863316 10.9296619,49.4404433 11.3281022,47.0730758 C11.7696172,44.4429828 12.9704604,42.4228898 14.2417142,40.2842014 C14.4916022,39.8642944 14.7448037,39.4381456 14.9966246,39.0006479 C16.338841,36.6704479 17.3513709,34.6841177 17.17355,32.1170107 L17.1520127,31.8029316 C17.0352142,30.125006 16.9151022,28.3909037 16.91455,26.6766619 C17.2257366,26.6641781 17.5360948,26.6519781 17.8492142,26.6392107 C18.665147,26.6060153 19.4854978,26.5739549 20.3080575,26.5441642 C20.2983933,26.57282 20.2903858,26.6020433 20.2903858,26.6341037 C20.2917664,28.3622479 20.1702739,30.1119549 20.0523709,31.8034991 L20.0308336,32.1170107 C19.8530127,34.683834 20.8652664,36.6701642 22.2072067,39.0003642 L22.2072067,39.0003642 Z M10.4111097,26.2649828 C10.434856,26.0612712 10.4467291,25.8430898 10.45805,25.6317177 C10.4823485,25.1823037 10.5074754,24.7195549 10.6455351,24.3297223 C10.878856,24.3430572 11.1119007,24.3566758 11.3485351,24.3691595 C11.1392366,24.8341781 11.1080351,25.3817595 11.0793187,25.9126014 C11.0726918,26.034034 11.0657888,26.1512107 11.0572291,26.2655502 C10.8415799,26.2664014 10.6262067,26.265834 10.4111097,26.2649828 L10.4111097,26.2649828 Z M8.28388582,25.63342 C8.31122164,25.1266944 8.34076642,24.6040805 8.52990821,24.1872944 C8.78366194,24.2065874 9.03796791,24.2258805 9.29586343,24.2440386 C9.14703507,24.6699037 9.11997537,25.150527 9.09484851,25.6186665 C9.08325149,25.8354293 9.07220672,26.0402758 9.04956493,26.2354758 C9.04901269,26.2402991 9.0506694,26.2445549 9.0506694,26.2490944 C8.78062463,26.2431363 8.51030373,26.2340572 8.24025896,26.2244107 C8.26124403,26.0328991 8.27311716,25.830606 8.28388582,25.63342 L8.28388582,25.63342 Z M7.19680373,25.6311502 C7.22496791,25.1142107 7.25396045,24.5799642 7.45414701,24.1594898 C7.46325896,24.1404805 7.46712463,24.1200526 7.46740075,24.1001921 C7.72253507,24.122606 7.97960224,24.1441688 8.23915448,24.1651642 C8.0643709,24.6097549 8.03482612,25.1213037 8.00804254,25.6178153 C7.99672164,25.8280526 7.98567687,26.0260898 7.96413955,26.2161828 C7.69519925,26.2056851 7.42625896,26.1914991 7.15759478,26.177313 C7.17526642,25.9982851 7.18686343,25.8130153 7.19680373,25.6311502 L7.19680373,25.6311502 Z M4.97431866,25.957713 C4.99861716,25.7531502 5.0104903,25.5335502 5.02208731,25.321327 C5.04942313,24.818006 5.07869179,24.2987967 5.26534851,23.8828619 C5.51634104,23.9106665 5.76981866,23.9373363 6.02467687,23.9634386 C5.88551269,24.3810758 5.85845299,24.8492153 5.83387836,25.3048712 C5.82200522,25.5224851 5.81096045,25.7278991 5.78804254,25.9239502 C5.77865448,26.001406 5.83277388,26.0720526 5.9084306,26.0814153 C5.91395299,26.0822665 5.91947537,26.0825502 5.92527388,26.0825502 C5.99402761,26.0825502 6.0536694,26.0297781 6.06195299,25.957713 C6.08625149,25.7528665 6.09812463,25.5332665 6.10944552,25.3207595 C6.13457239,24.8611316 6.16080373,24.3881688 6.30714701,23.9923781 C6.59845299,24.0213177 6.89279627,24.0488386 7.18907239,24.0755084 C6.98115448,24.5396758 6.9502291,25.0858386 6.92123657,25.6152619 C6.91074403,25.8076247 6.89969925,25.9889223 6.88175149,26.1639781 C6.23922164,26.1270944 5.59669179,26.0765921 4.95333358,26.0150247 C4.96382612,25.9980014 4.9721097,25.9789921 4.97431866,25.957713 L4.97431866,25.957713 Z M3.93500522,25.3230293 C3.96289328,24.8052386 3.99188582,24.2701409 4.19234851,23.8479642 C4.20615448,23.8190247 4.20725896,23.7878153 4.20173657,23.7585921 C4.45880373,23.7900851 4.71780373,23.820727 4.97873657,23.850234 C4.80284851,24.2956758 4.77330373,24.8077921 4.74624403,25.3054386 C4.7343709,25.5227688 4.72332612,25.7281828 4.70040821,25.9239502 C4.6973709,25.948634 4.70289328,25.9718991 4.71145299,25.9931781 C4.43892313,25.9656572 4.16584104,25.933313 3.89275896,25.9009688 C3.91291567,25.7128619 3.92478881,25.5153921 3.93500522,25.3230293 L3.93500522,25.3230293 Z M2.9939903,24.1177828 C3.03071418,23.9535084 3.0666097,23.7855456 3.10029627,23.6161642 C3.37917687,23.6541828 3.66026642,23.6910665 3.94301269,23.7265316 C3.71907985,24.1997781 3.68870672,24.7626805 3.65943806,25.3074247 C3.6486694,25.5046107 3.63762463,25.6907316 3.61857239,25.8697595 C3.33831119,25.8345781 3.05722164,25.7942898 2.77613209,25.753434 C2.75569925,25.2004619 2.87028881,24.6738758 2.9939903,24.1177828 L2.9939903,24.1177828 Z M1.91270672,23.4683456 C1.91491567,23.4612526 1.91408731,23.4541595 1.91519179,23.4467828 C2.21671418,23.4924619 2.52044552,23.5364386 2.82583358,23.5789967 C2.79407985,23.7390153 2.75984104,23.8984665 2.72505,24.054513 C2.60604254,24.5890433 2.48758731,25.1411642 2.50111716,25.7145642 C2.18882612,25.6671828 1.87625896,25.6146944 1.56313955,25.5596526 C1.56396791,24.9340479 1.69181119,24.1620433 1.91270672,23.4683456 L1.91270672,23.4683456 Z M1.27459478,23.3466293 C1.39691567,23.3659223 1.52006493,23.3852153 1.64321418,23.4042247 C1.42397537,24.1001921 1.29475149,24.871913 1.28729627,25.5100014 C1.10340075,25.4762386 0.918952985,25.4390712 0.734505224,25.4027549 C0.918952985,24.7187037 1.09898284,24.0329502 1.27459478,23.3466293 L1.27459478,23.3466293 Z M10.1385799,26.2646991 C9.8674306,26.262713 9.59628134,26.2581735 9.32485597,26.2530665 C9.34777388,26.0536107 9.35964701,25.8405363 9.37069179,25.6339874 C9.3963709,25.15762 9.42481119,24.6670665 9.58551269,24.2630479 C9.84202761,24.2803549 10.0999231,24.2973781 10.360856,24.3132665 C10.2324604,24.7212572 10.2062291,25.1743595 10.1824828,25.616113 C10.1706097,25.833727 10.1595649,26.0394247 10.136647,26.2354758 C10.1355425,26.2456898 10.1380276,26.2550526 10.1385799,26.2646991 L10.1385799,26.2646991 Z M18.8043112,25.6288805 C18.8283336,25.2742293 18.8595351,24.9130526 18.9929007,24.6077688 C19.2013709,24.6140107 19.409841,24.6194014 19.6183112,24.6256433 C19.6691172,24.6267781 19.7207515,24.6284805 19.7715575,24.6298991 C19.6622142,24.960434 19.6384679,25.3204758 19.6158261,25.6717223 C19.6083709,25.7874805 19.6000873,25.8978479 19.5898709,26.0059456 C19.3162366,26.0164433 19.0414978,26.025806 18.7684157,26.0368712 C18.7841545,25.9023874 18.7951993,25.7642153 18.8043112,25.6288805 L18.8043112,25.6288805 Z M17.881244,25.7619456 C17.9060948,25.35282 17.9331545,24.9317781 18.0806022,24.582234 C18.2841022,24.5876247 18.4876022,24.5935828 18.6908261,24.5992572 C18.5762366,24.9190107 18.5516619,25.2682712 18.528744,25.60902 C18.5185276,25.7627967 18.5074828,25.9080619 18.4898112,26.0473688 C18.2805127,26.0558805 18.0687291,26.0626898 17.8599828,26.0709177 C17.8685425,25.9682107 17.8751694,25.8643688 17.881244,25.7619456 L17.881244,25.7619456 Z M16.6072291,26.1217037 C16.6146843,26.0221177 16.6204828,25.9219642 16.6262813,25.823513 C16.6516843,25.382327 16.6798485,24.927806 16.8397216,24.554713 C17.15505,24.5603874 17.4706545,24.5677642 17.7865351,24.5759921 C17.6564828,24.9425595 17.6296993,25.3482805 17.6056769,25.7443549 C17.5987739,25.8612479 17.5910425,25.973034 17.5816545,26.0822665 C17.2561097,26.0956014 16.9311172,26.1086526 16.6072291,26.1217037 L16.6072291,26.1217037 Z M15.5391993,25.8218107 C15.5657067,25.372113 15.5944231,24.9090805 15.7631321,24.5322991 C16.0213037,24.5379735 16.2814082,24.5436479 16.5439978,24.5481874 C16.4020724,24.9405735 16.3750127,25.3794898 16.3507142,25.8067735 C16.3438112,25.9188433 16.3371843,26.0269409 16.3286246,26.1322014 C16.0574754,26.1429828 15.7863261,26.1534805 15.5160052,26.1634107 C15.5251172,26.0496386 15.5328485,25.9350153 15.5391993,25.8218107 L15.5391993,25.8218107 Z M14.4521172,25.8218107 C14.4786246,25.3607642 14.5081694,24.8858153 14.687647,24.5042107 C14.9452664,24.5115874 15.2034381,24.5189642 15.4651993,24.525206 C15.3160948,24.9226991 15.2890351,25.370127 15.2636321,25.8050712 C15.256453,25.9324619 15.2478933,26.0541781 15.2376769,26.1730572 C14.9665276,26.1827037 14.6951022,26.1923502 14.4250575,26.2008619 C14.4358261,26.0748898 14.4446619,25.9477828 14.4521172,25.8218107 L14.4521172,25.8218107 Z M13.52905,25.9318944 C13.5566619,25.4214805 13.5859306,24.894327 13.7794903,24.4747037 C13.9816097,24.4817967 14.1829007,24.4891735 14.3877813,24.4956991 C14.2292888,24.9000014 14.2022291,25.3593456 14.1762739,25.8047874 C14.1679903,25.9452293 14.1586022,26.0785781 14.1467291,26.2090898 C13.9349455,26.2153316 13.7228858,26.2218572 13.5113784,26.2272479 C13.5182813,26.128513 13.5238037,26.0294944 13.52905,25.9318944 L13.52905,25.9318944 Z M12.442244,25.9293409 C12.4704082,25.4126851 12.4991246,24.8781549 12.6995873,24.4568293 C12.7031769,24.4491688 12.703453,24.4409409 12.7053858,24.4329967 C12.9632813,24.4440619 13.2217291,24.4548433 13.4834903,24.4644898 C13.3095351,24.9093642 13.2799903,25.4200619 13.2534828,25.9162898 C13.2474082,26.0249549 13.2418858,26.1307828 13.2344306,26.2340572 C12.9638336,26.2405828 12.6932366,26.2462572 12.4231918,26.2507967 C12.430647,26.143834 12.4367216,26.0357363 12.442244,25.9293409 L12.442244,25.9293409 Z M11.611953,24.4568293 C11.6232739,24.4329967 11.6252067,24.4074619 11.6232739,24.3827781 C11.8853112,24.396113 12.1481769,24.4091642 12.4146321,24.4210805 C12.2249381,24.875034 12.1942888,25.4019037 12.1664007,25.9137363 C12.16005,26.0311967 12.1534231,26.1444014 12.1454157,26.2553363 C11.8750948,26.2593084 11.6044978,26.2624293 11.334453,26.2641316 C11.3424604,26.1520619 11.3488112,26.0394247 11.3548858,25.928206 C11.3827739,25.411834 11.4120425,24.8778712 11.611953,24.4568293 L11.611953,24.4568293 Z M20.6868933,25.9642386 C20.413259,25.9738851 20.1418336,25.985234 19.8690276,25.9954479 C19.8775873,25.8935921 19.8847664,25.7911688 19.8913933,25.6904479 C19.9148634,25.3275688 19.9399903,24.9550433 20.0645201,24.6384107 C20.3265575,24.6460712 20.5885948,24.6534479 20.8522888,24.6608247 C20.7476396,24.99902 20.7249978,25.3672898 20.7029082,25.7261967 C20.6979381,25.8079084 20.6926918,25.8864991 20.6868933,25.9642386 L20.6868933,25.9642386 Z M21.9915575,24.6886293 C22.1980948,24.6931688 22.4054604,24.6962898 22.6122739,24.6996944 C22.5264007,24.988806 22.503759,25.2977781 22.4833261,25.5999409 C22.4758709,25.7097409 22.4675873,25.814434 22.4573709,25.9165735 C22.244759,25.9199781 22.0329754,25.9248014 21.8209157,25.9299084 C21.8264381,25.8578433 21.8311321,25.7854944 21.8358261,25.7142805 C21.8581918,25.3621828 21.8824903,25.0015735 21.9915575,24.6886293 L21.9915575,24.6886293 Z M23.5455575,25.906927 C23.2755127,25.9077781 23.0054679,25.9077781 22.7359754,25.9108991 C22.7448112,25.8138665 22.7522664,25.7159828 22.7588933,25.6198014 C22.7801545,25.306006 22.8041769,24.9854014 22.9027515,24.7050851 C23.1669978,24.7087735 23.431244,24.7104758 23.6960425,24.7121781 C23.6123784,24.99902 23.5900127,25.3048712 23.569856,25.6044805 C23.562953,25.7091735 23.5549455,25.8090433 23.5455575,25.906927 L23.5455575,25.906927 Z M25.0763634,24.7065037 C25.3110649,24.7039502 25.5452142,24.7039502 25.7796396,24.6985595 C25.6805127,24.9763223 25.6570425,25.2750805 25.6352291,25.5667456 C25.625841,25.6884619 25.6153485,25.8033688 25.6012664,25.9145874 C25.3715351,25.912034 25.1409754,25.9111828 24.9101396,25.9094805 C24.9189754,25.8135828 24.9261545,25.716834 24.9327813,25.6217874 C24.9540425,25.3079921 24.9780649,24.9873874 25.0763634,24.7065037 L25.0763634,24.7065037 Z M26.5395201,25.9265037 C26.3197291,25.9233828 26.1004903,25.9202619 25.8793187,25.9174247 C25.8920201,25.8084758 25.9019604,25.6978247 25.9105201,25.5885921 C25.9339903,25.2764991 25.9643634,24.9578805 26.0902739,24.6883456 C26.3020575,24.6823874 26.5127366,24.6727409 26.7239679,24.6639456 C26.6060649,24.9851177 26.5809381,25.3366479 26.557744,25.6790991 C26.5519455,25.7639316 26.546147,25.845927 26.5395201,25.9265037 L26.5395201,25.9265037 Z M32.2861172,25.7043502 C32.3140052,25.2486944 32.3429978,24.7777177 32.5404231,24.4085967 C32.54705,24.3966805 32.549259,24.3841967 32.551744,24.3714293 C32.8284157,24.3464619 33.0832739,24.3197921 33.3210127,24.2925549 C33.1539604,24.6855084 33.1257963,25.1323688 33.0992888,25.5667456 C33.0915575,25.6904479 33.0832739,25.8081921 33.0730575,25.9233828 C32.8057739,25.9321781 32.5382142,25.9387037 32.2703784,25.9443781 C32.2759007,25.8643688 32.2814231,25.7837921 32.2861172,25.7043502 L32.2861172,25.7043502 Z M31.198759,25.7080386 C31.2252664,25.2711084 31.254259,24.8208433 31.4304231,24.4585316 C31.7159306,24.4392386 31.9856993,24.4193781 32.2391769,24.3983828 C32.0668784,24.7947409 32.0373336,25.2472758 32.01055,25.6867595 C32.0050276,25.7769828 31.9995052,25.8649363 31.9931545,25.95062 C31.7225575,25.9554433 31.4522366,25.9585642 31.1816396,25.9605502 C31.1879903,25.8762851 31.1935127,25.7914526 31.198759,25.7080386 L31.198759,25.7080386 Z M30.111953,25.704634 C30.1368037,25.2949409 30.1641396,24.8736153 30.3126918,24.5240712 C30.5954381,24.5096014 30.8621694,24.4945642 31.1195127,24.4783921 C30.9751022,24.8560247 30.9483187,25.2787688 30.9231918,25.6904479 C30.9173933,25.7835084 30.9118709,25.8740153 30.9049679,25.9625363 C30.6349231,25.9636712 30.3646022,25.9642386 30.0948336,25.9636712 C30.1011843,25.87742 30.1067067,25.7903177 30.111953,25.704634 L30.111953,25.704634 Z M29.0071993,25.6992433 C29.0339828,25.3031688 29.064356,24.8957456 29.2465948,24.5725874 C29.5119455,24.5620898 29.7645948,24.5504572 30.0108933,24.5388247 C29.8863634,24.8997177 29.8601321,25.2983456 29.8363858,25.6870433 C29.8305873,25.7812386 29.8250649,25.8728805 29.8181619,25.9625363 C29.5409381,25.9614014 29.2642664,25.9596991 28.988147,25.9568619 C28.9956022,25.8708944 29.0016769,25.7843595 29.0071993,25.6992433 L29.0071993,25.6992433 Z M28.141841,24.6123084 C28.4138187,24.603513 28.6753037,24.5941502 28.9298858,24.5847874 C28.7843709,24.9269549 28.7570351,25.3085595 28.7319082,25.6793828 C28.7255575,25.7738619 28.7189306,25.8649363 28.710647,25.9537409 C28.4406022,25.9509037 28.1708336,25.9480665 27.9018933,25.9443781 C27.9087963,25.8626665 27.9143187,25.7801037 27.9201172,25.6992433 C27.9457963,25.3187735 27.9778261,24.9289409 28.141841,24.6123084 L28.141841,24.6123084 Z M34.1617963,25.8757177 C33.8925799,25.8901874 33.622259,25.9015363 33.3516619,25.912034 C33.3607739,25.8028014 33.3682291,25.6927177 33.374856,25.5843363 C33.402744,25.1278293 33.4314604,24.6557177 33.6299903,24.2860293 C33.6355127,24.2755316 33.6371694,24.2641828 33.6402067,24.2531177 C33.9105276,24.2179363 34.1557216,24.1810526 34.373856,24.1421828 C34.2382813,24.5615223 34.2112216,25.0302293 34.186647,25.4873037 C34.1794679,25.6215037 34.1714604,25.7497456 34.1617963,25.8757177 L34.1617963,25.8757177 Z M2.79987836,17.0749781 C3.83311716,12.7147549 4.89921418,8.22912698 6.31515448,3.85131302 C6.5559306,3.89699209 6.79946791,3.91656884 7.0441097,3.91656884 C7.52207239,3.91656884 8.00362463,3.84734093 8.47496045,3.77981535 C8.84026642,3.72732698 9.18541567,3.67795953 9.52393806,3.65951767 C9.95882612,3.63568512 10.3923336,3.60192233 10.825841,3.56844326 C11.8118634,3.4918386 12.8321246,3.41211302 13.8327813,3.46318279 C16.6411918,3.60589442 19.3452291,3.47169442 21.3882366,3.33834558 C23.766453,3.18343395 25.9883858,3.33579209 28.3409231,3.49694558 C28.3516918,3.49751302 28.3630127,3.49836419 28.3737813,3.49921535 C28.3768187,3.57355023 28.4342515,3.63398279 28.5079754,3.6354014 L28.5104604,3.6354014 C28.5783858,3.6354014 28.6325052,3.58404791 28.6438261,3.51737349 C29.2943634,3.56163395 29.9578784,3.60532698 30.6274679,3.64164326 C32.0773709,8.08556419 33.1592067,12.645527 34.2084604,17.0755456 C34.6695799,19.0224386 35.1436769,21.0150107 35.6489754,23.0075828 C35.6083858,23.0532619 35.5796694,23.110006 35.5746993,23.1746944 C35.3974306,23.423234 34.161244,23.8570433 28.0095799,24.0488386 C27.7182739,24.0579177 27.5037291,24.064727 27.3932813,24.0706851 C24.8159828,24.2108433 22.1815276,24.1331037 19.6337739,24.0584851 C18.6549306,24.0298293 17.6769157,24.0008898 16.7002813,23.9838665 C10.7245052,23.8794572 5.85790075,23.5006898 1.4129306,22.7942247 C1.89779627,20.8728665 2.35532612,18.9523595 2.79987836,17.0749781 L2.79987836,17.0749781 Z M9.15697537,1.94499209 C9.19038582,1.70184326 9.2271097,1.45358744 9.26990821,1.21072233 C9.55541567,1.17724326 9.8362291,1.14745256 10.113453,1.11936419 L10.1040649,1.17667581 C10.0088037,1.75177814 9.91050522,2.34645721 9.86190821,2.93631302 C9.8574903,2.98851767 9.88289328,3.03476419 9.92182612,3.06285256 C9.77962463,3.07249907 9.63742313,3.08498279 9.4946694,3.09292698 C9.31491567,3.10257349 9.13240075,3.12101535 8.95016194,3.14286186 C9.04404254,2.75104326 9.10257985,2.34248512 9.15697537,1.94499209 L9.15697537,1.94499209 Z M8.06602761,1.37329442 C8.37859478,1.32506186 8.68453507,1.28250372 8.98329627,1.24505256 C8.94629627,1.46550372 8.91343806,1.68737349 8.88361716,1.90527116 C8.82507985,2.33255488 8.76378134,2.77374093 8.65692313,3.18258279 C8.57105,3.19449907 8.48379627,3.20556419 8.39875149,3.21776419 C8.1626694,3.25152698 7.92382612,3.28528977 7.68636343,3.31025721 C7.89317687,2.70508047 8.02819925,2.01904326 8.06602761,1.37414558 L8.06602761,1.37329442 Z M7.08497537,1.57558744 C7.08884104,1.56537349 7.08718433,1.55487581 7.0896694,1.54437814 C7.32575149,1.49841535 7.55769179,1.45614093 7.78466194,1.41840605 C7.74324403,2.02755488 7.61540075,2.67103395 7.41935597,3.23819209 C7.40803507,3.27082 7.41079627,3.30373163 7.42156493,3.33380605 C7.10319925,3.35622 6.79063209,3.35366651 6.49242313,3.30571767 C6.68405,2.72692698 6.87981866,2.14955488 7.08497537,1.57558744 L7.08497537,1.57558744 Z M10.7592963,1.0558107 C10.8816172,1.04389442 11.0033858,1.02999209 11.1254306,1.01807581 C11.0925724,1.47429907 11.0434231,1.93704791 10.9904082,2.38901535 C10.9672142,2.58847116 10.9440201,2.78707581 10.9224828,2.98454558 C10.9222067,2.98709907 10.9233112,2.98936884 10.9230351,2.99220605 C10.8769231,2.9956107 10.8299828,2.99901535 10.7838709,3.00242 C10.5544157,3.02029442 10.323856,3.03448047 10.0938485,3.05093628 C10.1175948,3.02767116 10.1338858,2.99646186 10.1369231,2.9604293 C10.1844157,2.38220605 10.2818858,1.79348512 10.3763187,1.22434093 L10.3981321,1.09099209 C10.5187963,1.07907581 10.6394604,1.06744326 10.7592963,1.0558107 L10.7592963,1.0558107 Z M12.1768933,0.909126977 C12.2553112,0.900331628 12.3323485,0.894657209 12.4102142,0.886429302 C12.3295873,1.50749442 12.2437142,2.14416419 12.1120052,2.76239209 C12.0995799,2.82027116 12.1236022,2.87729907 12.1680575,2.90907581 C11.8436172,2.92553163 11.5219381,2.94709442 11.2021918,2.9712107 C11.2220724,2.78934558 11.2430575,2.60634558 11.2648709,2.42277814 C11.3198187,1.95151767 11.371453,1.46777349 11.4043112,0.989136279 C11.6613784,0.963033953 11.9184455,0.939201395 12.1768933,0.909126977 L12.1768933,0.909126977 Z M13.4536694,1.81419674 C13.4655425,1.47742 13.4799007,1.13128047 13.5232515,0.79734093 C13.8490724,0.779750233 14.1737888,0.767833953 14.4976769,0.761875814 C14.2999754,1.32619674 14.3016321,2.61968047 14.3046694,2.91389907 C14.1563933,2.90794093 14.0092216,2.90396884 13.8603933,2.89630837 C13.6996918,2.88836419 13.5392664,2.88836419 13.3785649,2.88637814 C13.4266097,2.52945721 13.441244,2.16714558 13.4536694,1.81419674 L13.4536694,1.81419674 Z M13.2424381,0.81549907 C13.2026769,1.14433163 13.189147,1.47855488 13.1778261,1.80398279 C13.1651246,2.16062 13.1496619,2.52662 13.0999604,2.88042 C12.84455,2.88155488 12.5896918,2.88864791 12.3359381,2.89999674 C12.3583037,2.88070372 12.3748709,2.8546014 12.3817739,2.82310837 C12.5203858,2.17196884 12.608744,1.50579209 12.6924082,0.858624651 C12.8763037,0.841885116 13.059647,0.82769907 13.2424381,0.81549907 L13.2424381,0.81549907 Z M15.4235052,0.758471163 C15.3660724,1.14716884 15.3602739,1.54154093 15.3577888,1.92456419 C15.3550276,2.27808047 15.3503336,2.61400605 15.3094679,2.94454093 C15.0675873,2.93971767 14.8251545,2.93319209 14.5807888,2.92468047 C14.5656022,2.2596386 14.6454007,0.917354884 14.7646843,0.773792093 C14.7746246,0.770387442 14.7818037,0.764145581 14.7900873,0.758754884 C15.0013187,0.757052558 15.2122739,0.756768837 15.4235052,0.758471163 L15.4235052,0.758471163 Z M15.7021097,0.761308372 C16.0690724,0.76669907 16.4374157,0.776345581 16.8076918,0.788545581 C16.7325873,1.20646651 16.7359007,1.63403395 16.743356,2.04996884 C16.7491545,2.36348047 16.752744,2.66195488 16.7254082,2.95447116 C16.3512664,2.95702465 15.9713261,2.9550386 15.5869679,2.94936419 C15.626453,2.60918279 15.6314231,2.26332698 15.6339082,1.92683395 C15.6363933,1.54040605 15.6416396,1.1426293 15.7021097,0.761308372 L15.7021097,0.761308372 Z M18.1962963,0.841317674 L18.2018187,1.06999674 C18.2175575,1.69134558 18.2297067,2.33028512 18.1612291,2.92808512 C17.7826694,2.93943395 17.3980351,2.9482293 17.0034604,2.95276884 C17.0291396,2.65032233 17.0249978,2.34362 17.0191993,2.04457814 C17.011744,1.62892698 17.0078784,1.20135953 17.0865724,0.798475814 C17.4107366,0.810108372 17.7368336,0.822875814 18.066244,0.836210698 C18.1090425,0.837913023 18.1534978,0.839331628 18.1962963,0.841317674 L18.1962963,0.841317674 Z M18.4779381,1.06262 L18.4740724,0.89777814 C18.4826321,0.883875814 18.4881545,0.868271163 18.4914679,0.852382791 C18.9760575,0.871392093 19.4667216,0.886713023 19.9631843,0.899196744 C19.9479978,0.92246186 19.9372291,0.948847907 19.9377813,0.979206047 C19.941647,1.18944326 19.9595948,1.41216419 19.9767142,1.62750837 C20.0098485,2.04259209 20.0391172,2.46817349 19.9816843,2.85289907 C19.490744,2.87871767 18.9752291,2.90141535 18.4398336,2.91928977 C18.5049978,2.3138293 18.4934007,1.67971302 18.4779381,1.06262 L18.4779381,1.06262 Z M21.4688634,0.915368837 C21.4304828,1.20504791 21.4420799,1.52338279 21.4569903,1.86044326 C21.4705201,2.16686186 21.4821172,2.48037349 21.4525724,2.76721535 C21.4191619,2.7692014 21.3865799,2.76976884 21.3531694,2.7720386 C21.0094007,2.79445256 20.6410575,2.81629907 20.2624978,2.83757814 C20.3133037,2.43781535 20.2848634,2.01592233 20.2517291,1.60424326 C20.2343336,1.38350837 20.2174903,1.17497349 20.2139007,0.973531628 C20.2133485,0.947996744 20.2036843,0.925015349 20.1909828,0.90402 C20.4165724,0.908559535 20.6405052,0.916503721 20.8671993,0.917922326 C21.0673858,0.91934093 21.2681246,0.91622 21.4688634,0.915368837 L21.4688634,0.915368837 Z M22.2767888,0.912247907 C22.6053709,0.909126977 22.9361619,0.906573488 23.2677813,0.906289767 C23.2296769,0.92842 23.2004082,0.966722326 23.1959903,1.01495488 C23.1752813,1.23654093 23.1667216,1.47231302 23.1587142,1.70042465 C23.1465649,2.03947116 23.1330351,2.38646186 23.0808485,2.70876884 C22.6362963,2.71330837 22.1864978,2.72919674 21.7328336,2.7530293 C21.7585127,2.45909442 21.7463634,2.14955488 21.7328336,1.84767581 C21.717647,1.50777814 21.7049455,1.18745721 21.7469157,0.914233953 C21.9236321,0.912815349 22.0997963,0.913950233 22.2767888,0.912247907 L22.2767888,0.912247907 Z M24.9766843,0.942606047 C24.9178709,0.953387442 24.86955,1.0002014 24.862647,1.06432233 C24.8317216,1.34804326 24.8237142,1.63857349 24.8159828,1.91974093 C24.8085276,2.18728977 24.7991396,2.46079674 24.7715276,2.7286293 C24.3032291,2.71387581 23.83355,2.70678279 23.3605575,2.7082014 C23.4097067,2.38334093 23.4226843,2.04315953 23.4345575,1.71092233 C23.442841,1.47656884 23.4508485,1.25526651 23.4710052,1.04219209 C23.4762515,0.984880465 23.4475351,0.933243256 23.4022515,0.906289767 C23.92605,0.906857209 24.4520575,0.915652558 24.9766843,0.942606047 L24.9766843,0.942606047 Z M28.3130351,1.3852107 C28.3580425,1.38975023 28.4036022,1.39428977 28.4488858,1.3988293 C28.3155201,1.82214093 28.3362291,2.36404791 28.3580425,2.89035023 C28.3585948,2.90368512 28.3588709,2.91616884 28.3594231,2.92950372 C27.8196097,2.89262 27.2866993,2.85630372 26.75655,2.82395953 C26.758759,2.33085256 26.7758784,1.75688512 26.9857291,1.41528512 C27.0265948,1.34917814 27.0069903,1.26150837 26.9426545,1.2198014 C26.8785948,1.17837814 26.7932739,1.19767116 26.7521321,1.26377814 C26.5041769,1.66751302 26.4834679,2.2812014 26.4804306,2.80750372 C26.0019157,2.77969907 25.5250575,2.75586651 25.0479231,2.73827581 C25.0749828,2.46732233 25.0843709,2.19466651 25.0921022,1.92768512 C25.0995575,1.65247581 25.1072888,1.36762 25.1371097,1.09581535 C25.1445649,1.02658744 25.1009381,0.965587442 25.0379828,0.94657814 C25.866341,0.991689767 26.6897291,1.08276419 27.4910276,1.26604791 C27.787856,1.33385721 28.0548634,1.36024326 28.3130351,1.3852107 L28.3130351,1.3852107 Z M29.7701172,1.68765721 C29.8408037,1.71319209 29.9150799,1.74156419 29.9910127,1.77192233 C30.1428784,2.20034093 30.2886694,2.63074558 30.4330799,3.06171767 C30.2157739,3.04951767 29.9990201,3.03731767 29.7833709,3.02369907 C29.8485351,2.57059674 29.8214754,2.0522386 29.7701172,1.68765721 L29.7701172,1.68765721 Z M28.636647,2.94794558 C28.6355425,2.92439674 28.6349903,2.90198279 28.6338858,2.87815023 C28.6126246,2.36745256 28.5905351,1.83944791 28.7164455,1.46351767 C28.7200351,1.45273628 28.7194828,1.44195488 28.7205873,1.43088977 C28.9497664,1.46181535 29.1971694,1.50806186 29.4870948,1.59488047 C29.4835052,1.61190372 29.4824007,1.62977814 29.4854381,1.64822 C29.5423187,1.99889907 29.5773858,2.54648047 29.5064231,3.00639209 C29.2137366,2.98738279 28.9243634,2.96780605 28.636647,2.94794558 L28.636647,2.94794558 Z M35.6934306,23.8337781 C35.7053037,23.8082433 35.7069604,23.7812898 35.703647,23.7551874 C35.7467216,23.732206 35.7859306,23.7092247 35.8212739,23.6856758 C35.9830799,24.3144014 36.1479231,24.9428433 36.3177366,25.5690153 C36.0394082,25.6583874 35.7240799,25.7332898 35.4051619,25.7801037 C35.4178634,25.6294479 35.4278037,25.4762386 35.4360873,25.3247316 C35.4639754,24.8015502 35.4929679,24.2604944 35.6934306,23.8337781 L35.6934306,23.8337781 Z M36.9003485,25.6569688 C36.8937216,25.638527 36.880744,25.6249084 36.8708037,25.6084526 C36.8779828,25.5681642 36.8785351,25.525606 36.8669381,25.4833316 C36.0935276,22.6350572 35.4079231,19.74082 34.7452366,16.9416293 C33.6780351,12.4375595 32.5788037,7.79872233 31.0905201,3.27337349 C31.090244,3.27252233 31.090244,3.27195488 31.0899679,3.27138744 C30.88205,2.63840605 30.6664007,2.00769442 30.4421918,1.37982 C30.3913858,1.23767581 30.241453,1.16504326 30.1020127,1.20930372 C29.3459978,0.919057209 28.8252366,0.865433953 28.3652216,0.820322326 C28.1128485,0.795638605 27.8745575,0.772373488 27.6111396,0.712224651 C25.8566769,0.310475814 24.0356694,0.328633953 22.2715425,0.344806047 C21.8040724,0.34906186 21.3366022,0.353033953 20.8710649,0.350480465 C19.9311545,0.344238605 18.9945575,0.305936279 18.0883336,0.269336279 C16.1516321,0.19046186 14.1492142,0.109033953 12.1150425,0.345373488 C11.6439828,0.400131628 11.1778933,0.445243256 10.7071097,0.490922326 C9.47975896,0.609801395 8.21016194,0.732936279 6.73761716,1.03538279 C6.58823657,1.06602465 6.49131866,1.21526186 6.52113955,1.3690386 C6.52583358,1.3934386 6.53770672,1.41358279 6.54792313,1.43514558 C4.72912463,6.5350293 3.47554254,11.8244386 2.26365448,16.9410619 C1.61118433,19.6945735 0.936072388,22.539727 0.178124627,25.3428898 C0.093908209,25.3766526 0.0248783582,25.4475828 0.00555,25.5457502 C-0.0248231343,25.6992433 0.0715425373,25.8490479 0.221199254,25.8799735 C3.76546791,26.6207688 7.22331119,26.8349781 10.7187067,26.8349781 C12.5825127,26.8349781 14.458744,26.7734107 16.3625873,26.6987921 C16.364244,28.4258014 16.4840799,30.1627409 16.6011545,31.8435037 L16.6229679,32.1572991 C16.7889157,34.5604153 15.8136619,36.4678712 14.5216993,38.7115363 C14.2707067,39.1467642 14.0188858,39.5703595 13.7706545,39.9882805 C12.4709604,42.174634 11.2433336,44.2395549 10.7838709,46.976327 C10.3727291,49.4191642 10.4006172,51.3240665 10.88355,53.7697409 L10.9409828,54.0636758 C11.1743037,55.2660851 11.394647,56.40182 12.1796545,57.4677595 C12.5386097,57.9551921 12.9434007,58.4082944 13.3346619,58.8466433 C13.7342067,59.2943549 14.1475575,59.7573874 14.5037515,60.2487921 C14.5056843,60.3577409 14.5680873,60.4607316 14.6721843,60.5055595 C15.5554903,60.8854619 16.5351619,61.0000851 17.5198037,61.0000851 C18.3050873,61.0000851 19.0934082,60.9271688 19.8372739,60.8585084 C20.084953,60.8358107 20.3284903,60.813113 20.5662291,60.79382 C20.7056694,60.7824712 20.850356,60.7759456 20.9969754,60.7691363 C21.5632963,60.7433177 22.1492216,60.7166479 22.6183485,60.4332107 C22.7069828,60.3793037 22.7514381,60.2822712 22.7500575,60.18382 C23.0949306,59.7162479 23.4881246,59.273927 23.8702739,58.8460758 C24.261259,58.4080107 24.6657739,57.9549084 25.0247291,57.4677595 C25.8094604,56.40182 26.0298037,55.2660851 26.2634007,54.0636758 L26.3208336,53.7700247 C26.8034903,51.3269037 26.8316545,49.4220014 26.4207888,46.9766107 C25.96105,44.2406898 24.7342515,42.17662 23.4351097,39.9911177 C23.18605,39.5723456 22.9336769,39.1476153 22.6824082,38.7115363 C21.3904455,36.4675874 20.4151918,34.5601316 20.5814157,32.1572991 L20.6032291,31.8440712 C20.7216843,30.1420293 20.8440052,28.3823921 20.8426246,26.6335363 C20.8426246,26.595234 20.8348933,26.5592014 20.8216396,26.526006 C20.9978037,26.5200479 21.1728634,26.5129549 21.3495799,26.5072805 C23.2672291,26.4471316 25.2329231,26.4746526 27.1323485,26.501606 C29.7248336,26.538206 32.4045724,26.5762247 35.021356,26.3929409 C35.6105948,26.3518014 36.2534007,26.2133456 36.7404754,26.0229688 C36.882953,25.9673595 36.954744,25.8036526 36.9003485,25.6569688 L36.9003485,25.6569688 Z" id="Fill-1" fill="#000000" mask="url(#mask-2)"></path>
                    </g>
                    <path d="M18.8428657,33 C18.7582159,33.0011825 18.6907414,33.0641819 18.6919682,33.1410577 C18.7232518,34.9805271 18.1800821,36.9329512 16.9821031,39.2852961 C16.6039392,40.0276891 16.1481797,40.7634213 15.7071418,41.4747309 C14.9048087,42.7694087 14.0754858,44.1079363 13.6562239,45.5702423 C13.0906649,47.5409834 12.8937621,49.927742 13.0535539,52.8681732 C13.0575411,52.9422737 13.1250156,53 13.2065984,53 C13.209052,53 13.2118123,53 13.2139592,52.9997225 C13.2989157,52.9961146 13.3639366,52.930895 13.3596428,52.8545742 C13.2013844,49.9427287 13.3955269,47.5828904 13.9534183,45.6401798 C14.3625592,44.2122876 15.1817609,42.8898568 15.9745862,41.6104431 C16.4186911,40.8944155 16.8775177,40.1536877 17.2605888,39.4013037 C18.4788101,37.009827 19.0308742,35.0191037 18.9986705,33.1366172 C18.9974436,33.0600189 18.9253686,32.9975746 18.8428657,33" id="Fill-4" fill="#000000"></path>
                    <path d="M15.3741253,55.8668361 C14.973761,55.3038278 14.5600388,54.7216518 14.3637527,54.118359 C14.3359239,54.032592 14.2346269,53.9809369 14.1348141,54.006602 C14.0364855,54.0312925 13.9789725,54.120958 14.0071724,54.2073748 C14.2175585,54.8545257 14.6450096,55.4561941 15.0587317,56.0383701 C15.2624389,56.3245849 15.473196,56.6208709 15.6505585,56.9139081 C15.6839531,56.968812 15.748145,57 15.8145631,57 C15.8438762,57 15.8735603,56.9941523 15.9013891,56.9811573 C15.9919256,56.9392484 16.0264334,56.8408113 15.9781967,56.7615418 C15.7948974,56.4587583 15.5811719,56.1579241 15.3741253,55.8668361" id="Fill-6" fill="#000000"></path>
                    <path d="M23.1612108,53.9933811 C23.1855095,53.9980695 23.2098081,54 23.2336394,54 C23.3317684,54 23.4238228,53.9633205 23.4560652,53.9051296 C23.8925057,53.1174848 24.0597924,52.2363486 23.9812891,51.1321015 C23.9756818,51.0557088 23.8635343,51 23.7378357,51 C23.6088661,51.0030336 23.508868,51.0675676 23.5140081,51.1434087 C23.5901749,52.2137341 23.4303647,53.0639823 23.0116809,53.8193602 C22.9714947,53.8916161 23.0383159,53.9696635 23.1612108,53.9933811" id="Fill-8" fill="#000000"></path>
                    <path d="M5.12714305,21 C5.15839803,21 5.189653,20.9880238 5.21430124,20.9638054 C5.61553383,20.5688585 5.70472487,19.2977894 5.77002998,18.3700368 C5.79061253,18.0794155 5.80839991,17.8281824 5.83152351,17.6661051 C6.10646567,15.7552434 6.40249859,13.8976089 6.99253158,12.1778334 C7.01616339,12.1086378 6.98185914,12.0325227 6.91579171,12.0075058 C6.8507407,11.9835535 6.77705011,12.0186836 6.75316419,12.0878791 C6.15550804,13.8302763 5.85744228,15.702016 5.58046727,17.6264507 C5.55581904,17.7986412 5.53752344,18.0543986 5.51668679,18.3506088 C5.45798842,19.1849475 5.3693056,20.4459033 5.03998486,20.7700579 C4.98890965,20.8203577 4.9863686,20.904723 5.03464865,20.9582165 C5.05955098,20.9858948 5.09334702,21 5.12714305,21" id="Fill-10" fill="#000000"></path>
                    <path d="M30.0458279,12.6637742 C30.84392,15.3790572 31.668874,18.1866872 32.684451,20.9022544 C32.706782,20.9619247 32.7702151,21 32.8381792,21 C32.8550084,21 32.8718375,20.9977268 32.8886667,20.9926122 C32.97346,20.96846 33.0197402,20.8880471 32.9919074,20.8136013 C31.9795668,18.1065585 31.1559073,15.3034748 30.3594334,12.5927381 C30.0231732,11.4484889 29.6749384,10.2647437 29.3179654,9.10486666 C29.294987,9.02928427 29.2072811,8.98467361 29.1195751,9.00484786 C29.0331637,9.02530625 28.9823524,9.10316179 29.0056544,9.17902832 C29.3623038,10.3372005 29.7098913,11.5200933 30.0458279,12.6637742" id="Fill-12" fill="#000000"></path>
                    <path d="M29.7097644,7.92249402 C29.7375009,7.97192236 29.7908168,8 29.8456735,8 C29.8703283,8 29.8952912,7.99473544 29.9180968,7.98303643 C29.9932937,7.94501463 30.0219548,7.85639459 29.9818909,7.78503059 C29.5858744,7.07782511 29.4684563,6.25479938 29.3550446,5.45838891 L29.3066597,5.1258444 C29.2946405,5.04599862 29.2145127,4.98984334 29.1325357,5.00154236 C29.0484015,5.0129489 28.9895383,5.08694517 29.0015575,5.16708343 L29.049326,5.49758061 C29.166436,6.31943644 29.2878605,7.16907743 29.7097644,7.92249402" id="Fill-14" fill="#000000"></path>
                </g>
            </g>
        </g>
    </g>
</svg>