<?xml version="1.0" encoding="UTF-8"?>
<svg width="30px" height="44px" viewBox="0 0 30 44" version="1.1" xmlns="http://www.w3.org/2000/svg" xmlns:xlink="http://www.w3.org/1999/xlink">
    <!-- Generator: Sketch 57.1 (83088) - https://sketch.com -->
    <title>Fill 1</title>
    <desc>Created with Sketch.</desc>
    <g id="Desktop" stroke="none" stroke-width="1" fill="none" fill-rule="evenodd">
        <g id="Outlet-" transform="translate(-978.000000, -641.000000)" fill="#000000">
            <g id="Group-4" transform="translate(978.000000, 639.000000)">
                <path d="M15.5,23 C11.3582494,23 8,19.8655394 8,15.999789 C8,12.1344606 11.3582494,9 15.5,9 C19.6422027,9 23,12.1344606 23,15.999789 C23,19.8655394 19.6422027,23 15.5,23 M15.0002214,2 C6.71602132,2 0,8.6726 0,16.9028 C0,17.07924 0.0053143591,17.25876 0.0132858978,17.44004 C0.0695295316,19.00556 0.366690778,20.50904 0.871997756,21.91572 C4.07212766,32.3666 15.0002214,46 15.0002214,46 C15.0002214,46 25.9269866,32.36792 29.1275594,21.91704 C29.6337521,20.51036 29.9304705,19.00556 29.9862712,17.44004 C29.9951285,17.25876 30,17.07968 30,16.9028 C30.0004429,8.6726 23.2844215,2 15.0002214,2" id="Fill-1"></path>
            </g>
        </g>
    </g>
</svg>