<?xml version="1.0" encoding="UTF-8"?>
<svg width="298px" height="72px" viewBox="0 0 298 72" version="1.1" xmlns="http://www.w3.org/2000/svg" xmlns:xlink="http://www.w3.org/1999/xlink">
    <!-- Generator: Sketch 57.1 (83088) - https://sketch.com -->
    <title>Group 15</title>
    <desc>Created with Sketch.</desc>
    <defs>
        <polygon id="path-1" points="0.845877747 0.354 44.0596028 0.354 44.0596028 58.6679648 0.845877747 58.6679648"></polygon>
        <polygon id="path-3" points="0.221659861 0.354 84.2475589 0.354 84.2475589 71.9999712 0.221659861 71.9999712"></polygon>
    </defs>
    <g id="Desktop" stroke="none" stroke-width="1" fill="none" fill-rule="evenodd">
        <g id="Commercial" transform="translate(-234.000000, -244.000000)">
            <g id="Group-15" transform="translate(234.000000, 243.000000)">
                <path d="M34.1317,36.4622 C33.7537,35.6612 33.6277,35.4522 33.5517,35.2262 C30.1287,25.0592 26.7207,14.8872 23.2767,4.7282 C22.8437,3.4522 22.6627,1.9882 20.6247,2.02065213 C14.5447,2.1212 8.4627,2.0552 2.3807,2.0662 C1.4417,2.0672 0.5247,2.0762 0.5117,3.4542 C0.5007,4.7532 1.3477,4.8632 2.2977,5.0412 C6.4627,5.8192 7.5427,7.0082 7.5527,11.1892 C7.5817,22.8522 7.5817,34.5162 7.5047,46.1792 C7.4767,50.5022 6.6587,54.4352 1.3057,55.1962 C0.3287,55.3352 -0.0813,56.0292 0.0137,57.0092 C0.1197,58.1042 0.8637,58.3042 1.7857,58.3032 C6.9507,58.2962 12.1157,58.2972 17.2807,58.3012 C18.0977,58.3022 18.8007,58.1552 18.9047,57.1662 C19.0007,56.2532 18.8357,55.4422 17.7357,55.3242 C12.7747,54.7912 11.9557,51.3062 11.9427,47.2422 C11.9087,36.4122 11.8757,25.5822 11.8637,14.7522 C11.8627,14.1412 11.6207,13.4132 12.3377,12.9512 C12.7947,13.1502 12.8267,13.5862 12.9607,13.9702 C17.8297,27.9522 22.6997,41.9342 27.5777,55.9132 C27.9837,57.0772 28.2317,58.3742 29.9617,58.3082 C31.5607,58.2482 31.6867,57.0412 32.0567,55.9412 C36.8547,41.6682 41.6627,27.3972 46.4847,13.1312 C46.6437,12.6592 46.4687,11.8942 47.3267,11.8412 C47.9077,12.4032 47.6937,13.1042 47.6947,13.7302 C47.7077,25.3942 47.7297,37.0572 47.6867,48.7202 C47.6697,53.4962 46.9037,54.3742 42.1137,55.3992 C41.1497,55.6052 40.5847,55.8852 40.6377,56.9642 C40.6947,58.1072 41.4227,58.2982 42.3407,58.2992 C50.0887,58.2992 57.8367,58.2982 65.5837,58.3072 C66.5037,58.3082 67.2627,58.1302 67.3617,57.0282 C67.4727,55.8012 66.7187,55.5742 65.6857,55.3782 C61.3057,54.5452 60.3127,53.5782 60.2837,49.3242 C60.1987,36.4952 60.2007,23.6642 60.2887,10.8362 C60.3167,6.7842 61.3257,5.8432 65.3927,5.1512 C66.4297,4.9742 67.4117,4.8392 67.3757,3.4382 C67.3357,1.8992 66.2017,2.0642 65.2237,2.0612 C59.4747,2.0462 53.7257,2.0962 47.9787,2.0282 C46.4327,2.0102 45.7497,2.7122 45.3117,4.0662 C44.3117,7.1532 43.2327,10.2142 42.1707,13.2812 C39.5637,20.8132 36.9487,28.3402 34.1317,36.4622" id="Fill-1" fill="#FFFFFF"></path>
                <path d="M246.4716,27.0765 C246.4716,23.2455 246.4716,19.4145 246.4716,15.5835 C246.4706,11.3355 246.4806,7.0885 246.4556,2.8405 C246.4506,1.8505 246.5476,0.6365 244.8876,1.1245 C240.4196,2.4365 235.9536,3.7555 231.4906,5.0865 C230.7176,5.3165 230.1746,5.7695 230.185436,6.6825 C230.1966,7.5485 230.5656,8.1095 231.4296,8.3015 C234.4506,8.9735 235.2076,11.3115 235.4136,13.9255 C235.5646,15.8295 235.4826,17.7545 235.4826,19.6695 C235.4846,29.7465 235.5006,39.8245 235.4676,49.9025 C235.4556,53.5345 234.9506,54.2305 231.5806,55.5185 C230.7826,55.8235 230.5996,56.3355 230.6326,57.0435 C230.6686,57.8265 231.0886,58.2625 231.8926,58.2875 C232.1426,58.2955 232.3916,58.3115 232.6416,58.3115 C238.1386,58.3135 243.6356,58.3165 249.1326,58.3115 C249.9656,58.3105 250.8876,58.3925 251.1016,57.2695 C251.2546,56.4705 251.1276,55.6625 250.1556,55.5495 C246.7486,55.1515 246.4736,52.7175 246.4746,50.0635 C246.4766,42.4015 246.4756,34.7395 246.4716,27.0765" id="Fill-3" fill="#FFFFFF"></path>
                <g id="Group-7" transform="translate(253.000000, 0.646300)">
                    <mask id="mask-2" fill="white">
                        <use xlink:href="#path-1"></use>
                    </mask>
                    <g id="Clip-6"></g>
                    <path d="M23.7065,53.0025 C21.4765,54.2525 18.3675,53.6405 16.5365,51.8105 C13.6565,48.9315 12.8105,45.1485 12.3655,41.3355 C11.8795,37.1675 12.1115,32.9865 14.0155,29.1145 C16.6965,23.6615 23.4335,22.9715 27.2595,27.6885 C27.8015,28.3565 27.7465,29.0745 27.7485,29.8085 C27.7635,32.8075 27.7545,35.8065 27.7555,38.8065 C27.7565,41.5555 27.5905,44.3175 27.7995,47.0505 C28.0435,50.2525 25.9655,51.7365 23.7065,53.0025 M43.2705,54.9125 C38.8515,53.9135 38.6165,50.5325 38.6205,46.9545 C38.6335,32.5445 38.6245,18.1335 38.6245,3.7235 C38.6245,3.0565 38.6065,2.3905 38.6185,1.7245 C38.6395,0.4535 38.0405,0.1545 36.8695,0.4695 C32.4525,1.6585 28.0265,2.8155 23.5975,3.9565 C22.7085,4.1855 22.0585,4.5215 22.0285,5.5715 C21.9975,6.6775 22.7595,6.9525 23.5935,7.1855 C25.0095,7.5805 26.3585,8.2295 26.8625,9.6545 C28.4165,14.0515 27.6455,18.5565 27.6315,23.3375 C26.8645,22.9005 26.4945,22.7235 26.1595,22.4955 C16.1885,15.7175 6.0555,22.2265 2.8295,29.6225 C0.8915,34.0655 0.5255,38.6645 1.0825,43.3275 C2.3985,54.3305 12.3015,60.9655 22.2895,57.7255 C24.1935,57.1075 25.7305,55.8325 27.4385,54.8385 C27.9635,55.7675 27.6945,56.6145 27.7595,57.4235 C27.8215,58.1895 28.0675,58.7525 28.9475,58.6575 C33.5855,58.1625 38.2265,57.7225 42.8955,57.6555 C43.5815,57.6455 43.9625,57.2105 44.0325,56.5545 C44.1055,55.8705 44.0845,55.0965 43.2705,54.9125" id="Fill-5" fill="#FFFFFF" mask="url(#mask-2)"></path>
                </g>
                <path d="M92.87,44.3768 C92.87,45.2918 92.869,46.2058 92.87,47.1198 C92.872,50.4808 91.307,52.7128 88.158,53.8398 C84.292,55.2238 81.305,53.2638 81.009,49.1498 C80.589,43.3168 85.712,38.0838 91.555,38.3098 C92.544,38.3478 92.887,38.7208 92.876,39.6388 C92.857,41.2178 92.87,42.7978 92.87,44.3768 M108.237,53.7808 C107.981,53.2208 107.462,53.1728 106.961,53.2588 C104.315,53.7128 103.803,52.0268 103.769,50.0028 C103.714,46.5908 103.754,43.1778 103.754,39.7648 L103.622,39.7648 C103.622,36.5188 103.716,33.2698 103.599,30.0278 C103.449,25.8508 101.328,22.8938 97.387,21.5528 C90.811,19.3148 84.26,19.7278 77.912,22.4808 C75.581,23.4928 73.714,25.1688 72.744,27.6448 C71.537,30.7198 73.463,33.9728 76.721,34.1908 C79.348,34.3658 80.844,32.6538 81.909,30.5708 C82.776,28.8738 83.328,27.0138 84.209,25.3248 C85.155,23.5088 86.856,22.7678 88.832,23.1158 C90.696,23.4438 91.973,24.6088 92.306,26.5678 C92.528,27.8778 92.761,29.1968 92.831,30.5198 C93.026,34.2098 92.994,34.2108 89.443,34.9578 C88.548,35.1468 87.646,35.3078 86.761,35.5358 C81.911,36.7878 77.103,38.1498 73.233,41.5848 C69.75,44.6758 68.817,48.5438 70.082,52.9168 C71.13,56.5368 74.578,58.7928 79.183,59.1068 C83.384,59.3938 87.302,58.4658 90.815,56.1398 C92.179,55.2378 93.017,55.0198 94.349,56.4418 C98.053,60.3978 104.361,59.8758 107.755,55.5778 C108.188,55.0298 108.567,54.5048 108.237,53.7808" id="Fill-8" fill="#FFFFFF"></path>
                <path d="M202.8529,34.3934 C203.1079,31.3424 203.8409,28.4684 205.9229,26.1374 C209.4739,22.1604 215.3539,23.4254 217.0289,28.4604 C217.6699,30.3874 217.7599,32.3684 217.8629,34.3664 C217.9319,35.7114 217.3469,36.1024 216.0889,36.0594 C214.0939,35.9894 212.0949,36.0404 210.0979,36.0414 C208.2679,36.0414 206.4349,35.9924 204.6059,36.0594 C203.3729,36.1044 202.7359,35.7894 202.8529,34.3934 M224.8459,49.8464 C223.4709,51.1904 221.9559,52.3654 220.1979,53.1654 C212.2499,56.7854 202.6009,50.1184 202.9199,41.2894 C202.9749,39.7874 203.8439,39.7684 204.9009,39.7704 C208.3129,39.7764 211.7259,39.7724 215.1389,39.7684 C218.4679,39.7684 221.7999,39.6924 225.1249,39.7984 C227.0409,39.8594 227.7569,39.3054 227.6479,37.2414 C227.2689,30.0524 222.8829,23.6954 216.3759,21.2434 C209.7829,18.7584 202.5589,20.5954 197.5029,26.0424 C190.3589,33.7394 189.9589,46.1264 196.6289,53.0914 C204.8929,61.7194 219.1689,61.0884 226.9059,51.7734 C227.4929,51.0664 227.9499,50.4744 227.1609,49.6354 C226.2779,48.6964 225.5869,49.1224 224.8459,49.8464" id="Fill-10" fill="#FFFFFF"></path>
                <g id="Group-14" transform="translate(105.000000, 0.646300)">
                    <mask id="mask-4" fill="white">
                        <use xlink:href="#path-3"></use>
                    </mask>
                    <g id="Clip-13"></g>
                    <path d="M3.1806,63.0239 C4.1196,61.9409 5.5576,61.2539 7.0006,61.4379 C8.7316,61.6589 9.9156,63.1749 11.6456,63.4759 C12.9096,63.6959 15.1386,63.8309 16.1786,62.8839 C17.9436,61.2769 19.0766,57.6959 18.2846,55.9499 C13.9916,46.4759 9.6706,37.0139 5.3646,27.5449 C4.5466,25.7459 3.4876,24.1769 1.4666,23.5919 C0.4836,23.3079 0.0986,22.7089 0.2556,21.7419 C0.4136,20.7629 1.1746,20.6759 1.9586,20.6759 C7.3756,20.6729 12.7916,20.6719 18.2086,20.6789 C19.0076,20.6799 19.7336,20.8559 19.8526,21.8269 C19.9416,22.5439 19.7686,23.1979 19.0176,23.4589 C16.2576,24.4169 16.3986,26.4989 17.2606,28.5539 C19.2526,33.3099 21.4126,37.9959 23.5446,42.6919 C23.9646,43.6159 24.5396,44.1519 25.1466,42.7369 C27.0486,38.3019 29.0966,33.9259 30.8526,29.4339 C31.9486,26.6329 30.9436,24.9059 28.0686,23.8289 C27.1016,23.4669 26.0866,23.1949 26.2986,21.8429 C26.5286,20.3779 27.7136,20.6919 28.6596,20.6709 C33.3216,20.5729 37.9856,20.4129 42.6456,20.4649 C44.7466,20.4889 45.7816,20.1409 45.7566,17.6519 C45.7116,13.2919 47.0786,9.2559 49.9936,5.9199 C56.0046,-0.9571 71.2866,-1.5801 77.8836,4.7139 C79.0106,5.7899 79.7236,7.0889 79.9926,8.5999 C80.3726,10.7259 79.8466,12.6139 78.0766,13.9429 C76.2376,15.3239 74.1856,15.3929 72.1976,14.3099 C70.2406,13.2449 69.5216,11.5129 69.7336,9.2739 C70.0796,5.6159 69.6486,5.1539 66.0286,4.7239 C64.6176,4.5569 63.2126,4.4819 61.7956,4.7109 C58.7126,5.2079 56.6356,7.2069 56.3276,10.3159 C56.1566,12.0439 56.2796,13.8089 56.3556,15.5529 C56.5686,20.4239 56.5856,20.4609 61.5766,20.4129 C66.4066,20.3659 71.2556,20.7639 76.0596,20.1749 C79.5116,19.7519 79.4896,19.5759 79.4906,23.1069 C79.4926,32.1909 79.5146,41.2739 79.4846,50.3569 C79.4776,52.6979 80.1416,54.5039 82.7006,54.9379 C83.8076,55.1259 84.3596,55.5649 84.2286,56.7259 C84.0936,57.9209 83.2036,57.8609 82.3676,57.8619 C77.0346,57.8699 71.7006,57.8639 66.3676,57.8689 C65.4886,57.8699 64.6386,57.8069 64.4766,56.7069 C64.3316,55.7169 64.8386,55.2049 65.7846,54.9069 C67.3596,54.4109 68.3106,53.3509 68.3126,51.6049 C68.3236,43.4399 68.3356,35.2749 68.3456,27.1089 C68.3476,25.3459 67.3906,24.5339 65.6996,24.4979 C63.2006,24.4449 60.7006,24.4409 58.2036,24.3599 C56.8616,24.3169 56.4936,24.9999 56.4976,26.2049 C56.5196,34.2879 56.4576,42.3709 56.5526,50.4529 C56.5776,52.6479 57.4106,54.5819 59.9636,55.0279 C60.9346,55.1979 61.1516,55.8029 61.1026,56.6419 C61.0556,57.4539 60.5996,57.8439 59.8116,57.8439 C53.5616,57.8479 47.3126,57.8459 41.0636,57.8439 C40.1376,57.8439 39.7166,57.3699 39.7096,56.4469 C39.7016,55.5049 40.1826,55.2039 41.0666,55.0389 C44.7336,54.3549 45.4616,53.7879 45.5326,50.2859 C45.6946,42.2069 45.6156,34.1219 45.6346,26.0399 C45.6366,25.2359 45.4806,24.6429 44.5106,24.3959 C40.9126,23.4789 38.1066,24.5169 36.1806,27.7209 C35.4146,28.9969 34.8226,30.3839 34.2236,31.7529 C29.9536,41.5109 25.7186,51.2849 21.4326,61.0369 C19.9726,64.3609 18.7276,67.5729 15.7736,69.8679 C12.8236,72.1599 7.9446,72.9709 4.8796,70.4449 C2.7076,68.6559 1.0486,65.4819 3.1806,63.0239" id="Fill-12" fill="#FFFFFF" mask="url(#mask-4)"></path>
                </g>
            </g>
        </g>
    </g>
</svg>