<?xml version="1.0" encoding="UTF-8"?>
<svg width="298px" height="72px" viewBox="0 0 298 72" version="1.1" xmlns="http://www.w3.org/2000/svg" xmlns:xlink="http://www.w3.org/1999/xlink">
    <!-- Generator: Sketch 57.1 (83088) - https://sketch.com -->
    <title>Group 15</title>
    <desc>Created with Sketch.</desc>
    <defs>
        <polygon id="path-1" points="0.845677747 0.354 44.0594028 0.354 44.0594028 58.6677648 0.845677747 58.6677648"></polygon>
        <polygon id="path-3" points="0.221459861 0.354 84.2473598 0.354 84.2473598 71.9998712 0.221459861 71.9998712"></polygon>
    </defs>
    <g id="Desktop" stroke="none" stroke-width="1" fill="none" fill-rule="evenodd">
        <g id="Commercial" transform="translate(-73.000000, -74.000000)">
            <g id="Group-15" transform="translate(73.000000, 73.000000)">
                <path d="M34.1316,36.4621 C33.7536,35.6611 33.6286,35.4521 33.5516,35.2261 C30.1286,25.0591 26.7216,14.8871 23.2766,4.7281 C22.8436,3.4521 22.6626,1.9881 20.6246,2.02055213 C14.5456,2.1211 8.4626,2.0551 2.3806,2.0661 C1.4416,2.0671 0.5246,2.0761 0.5126,3.4541 C0.5016,4.7531 1.3476,4.8631 2.2986,5.0411 C6.4626,5.8191 7.5426,7.0081 7.5526,11.1891 C7.5816,22.8531 7.5816,34.5161 7.5046,46.1791 C7.4766,50.5021 6.6586,54.4351 1.3066,55.1961 C0.3286,55.3351 -0.0814,56.0291 0.0136,57.0091 C0.1196,58.1041 0.8636,58.3041 1.7856,58.3031 C6.9506,58.2961 12.1156,58.2971 17.2816,58.3021 C18.0976,58.3021 18.8006,58.1551 18.9046,57.1661 C19.0006,56.2531 18.8356,55.4431 17.7366,55.3251 C12.7756,54.7911 11.9556,51.3061 11.9426,47.2421 C11.9086,36.4121 11.8766,25.5821 11.8636,14.7521 C11.8626,14.1411 11.6216,13.4131 12.3376,12.9511 C12.7946,13.1501 12.8276,13.5861 12.9616,13.9701 C17.8296,27.9521 22.6996,41.9341 27.5776,55.9131 C27.9836,57.0771 28.2316,58.3741 29.9616,58.3081 C31.5616,58.2481 31.6876,57.0411 32.0566,55.9411 C36.8556,41.6681 41.6626,27.3971 46.4846,13.1311 C46.6436,12.6591 46.4686,11.8941 47.3266,11.8411 C47.9076,12.4031 47.6936,13.1041 47.6946,13.7301 C47.7076,25.3941 47.7296,37.0571 47.6866,48.7201 C47.6696,53.4961 46.9036,54.3741 42.1136,55.3991 C41.1506,55.6061 40.5856,55.8851 40.6386,56.9641 C40.6946,58.1071 41.4226,58.2991 42.3406,58.2991 C50.0886,58.2991 57.8366,58.2981 65.5846,58.3071 C66.5036,58.3081 67.2626,58.1301 67.3626,57.0281 C67.4726,55.8011 66.7186,55.5741 65.6856,55.3781 C61.3056,54.5451 60.3126,53.5781 60.2836,49.3241 C60.1986,36.4951 60.2006,23.6651 60.2886,10.8361 C60.3166,6.7841 61.3256,5.8431 65.3926,5.1511 C66.4296,4.9751 67.4116,4.8391 67.3756,3.4381 C67.3356,1.8991 66.2016,2.0641 65.2236,2.0611 C59.4756,2.0461 53.7266,2.0961 47.9786,2.0281 C46.4326,2.0101 45.7506,2.7121 45.3116,4.0661 C44.3126,7.1531 43.2326,10.2151 42.1716,13.2821 C39.5646,20.8131 36.9486,28.3401 34.1316,36.4621" id="Fill-1" fill="#231F20"></path>
                <path d="M246.4714,27.0769 C246.4714,23.2449 246.4714,19.4139 246.4714,15.5829 C246.4704,11.3359 246.4804,7.0879 246.4554,2.8409 C246.4504,1.8499 246.5474,0.6369 244.8874,1.1239 C240.4194,2.4369 235.9534,3.7559 231.4914,5.0859 C230.7174,5.3169 230.1744,5.7699 230.185236,6.6829 C230.1964,7.5489 230.5654,8.1089 231.4294,8.3019 C234.4504,8.9739 235.2074,11.3119 235.4134,13.9259 C235.5644,15.8299 235.4824,17.7539 235.4824,19.6699 C235.4854,29.7469 235.5004,39.8249 235.4684,49.9019 C235.4564,53.5339 234.9504,54.2309 231.5814,55.5179 C230.7824,55.8239 230.5994,56.3359 230.6324,57.0439 C230.6684,57.8269 231.0884,58.2619 231.8924,58.2869 C232.1424,58.2959 232.3914,58.3119 232.6414,58.3119 C238.1384,58.3142094 243.6354,58.3159 249.1324,58.3119 C249.9654,58.3109 250.8874,58.3929 251.1014,57.2699 C251.2544,56.4709 251.1274,55.6619 250.1554,55.5489 C246.7484,55.1519 246.4734,52.7169 246.4744,50.0639 C246.4774,42.4009 246.4754,34.7389 246.4714,27.0769" id="Fill-3" fill="#231F20"></path>
                <g id="Group-7" transform="translate(253.000000, 0.646300)">
                    <mask id="mask-2" fill="white">
                        <use xlink:href="#path-1"></use>
                    </mask>
                    <g id="Clip-6"></g>
                    <path d="M23.7063,53.0023 C21.4763,54.2523 18.3673,53.6403 16.5363,51.8103 C13.6563,48.9313 12.8103,45.1483 12.3653,41.3353 C11.8793,37.1673 12.1113,32.9863 14.0153,29.1153 C16.6963,23.6613 23.4343,22.9713 27.2603,27.6883 C27.8023,28.3563 27.7463,29.0743 27.7493,29.8083 C27.7633,32.8073 27.7553,35.8063 27.7553,38.8063 C27.7563,41.5553 27.5903,44.3173 27.7993,47.0503 C28.0433,50.2523 25.9663,51.7363 23.7063,53.0023 M43.2703,54.9133 C38.8513,53.9133 38.6163,50.5323 38.6203,46.9543 C38.6333,32.5443 38.6253,18.1333 38.6243,3.7233 C38.6243,3.0573 38.6063,2.3903 38.6183,1.7243 C38.6393,0.4533 38.0403,0.1543 36.8693,0.4693 C32.4523,1.6583 28.0263,2.8163 23.5973,3.9563 C22.7083,4.1853 22.0583,4.5213 22.0283,5.5713 C21.9973,6.6773 22.7593,6.9523 23.5933,7.1853 C25.0103,7.5803 26.3583,8.2293 26.8623,9.6543 C28.4163,14.0513 27.6453,18.5563 27.6323,23.3373 C26.8643,22.9003 26.4953,22.7233 26.1593,22.4953 C16.1883,15.7173 6.0553,22.2263 2.8293,29.6223 C0.8913,34.0653 0.5253,38.6643 1.0823,43.3273 C2.3983,54.3303 12.3013,60.9653 22.2893,57.7253 C24.1933,57.1073 25.7303,55.8323 27.4383,54.8383 C27.9633,55.7673 27.6943,56.6143 27.7603,57.4233 C27.8223,58.1893 28.0673,58.7523 28.9473,58.6573 C33.5853,58.1623 38.2263,57.7223 42.8953,57.6553 C43.5813,57.6453 43.9623,57.2103 44.0323,56.5543 C44.1053,55.8703 44.0843,55.0973 43.2703,54.9133" id="Fill-5" fill="#231F20" mask="url(#mask-2)"></path>
                </g>
                <path d="M92.8699,44.3767 C92.8699,45.2917 92.8689,46.2057 92.8699,47.1197 C92.8719,50.4807 91.3069,52.7127 88.1579,53.8407 C84.2919,55.2237 81.3049,53.2637 81.0089,49.1497 C80.5889,43.3167 85.7119,38.0837 91.5549,38.3097 C92.5439,38.3477 92.8869,38.7217 92.8759,39.6397 C92.8569,41.2187 92.8699,42.7977 92.8699,44.3767 M108.2369,53.7807 C107.9809,53.2217 107.4619,53.1727 106.9609,53.2587 C104.3149,53.7127 103.8029,52.0267 103.7689,50.0027 C103.7139,46.5907 103.7539,43.1777 103.7539,39.7647 L103.6229,39.7647 C103.6229,36.5187 103.7159,33.2697 103.5989,30.0277 C103.4489,25.8507 101.3279,22.8937 97.3879,21.5527 C90.8109,19.3147 84.2599,19.7277 77.9119,22.4807 C75.5809,23.4927 73.7139,25.1687 72.7439,27.6447 C71.5369,30.7197 73.4629,33.9727 76.7209,34.1907 C79.3479,34.3657 80.8439,32.6537 81.9089,30.5707 C82.7769,28.8737 83.3279,27.0137 84.2089,25.3247 C85.1549,23.5087 86.8569,22.7677 88.8319,23.1157 C90.6969,23.4437 91.9729,24.6087 92.3059,26.5677 C92.5289,27.8777 92.7619,29.1967 92.8309,30.5207 C93.0259,34.2097 92.9939,34.2107 89.4429,34.9577 C88.5479,35.1467 87.6459,35.3077 86.7609,35.5357 C81.9119,36.7877 77.1029,38.1497 73.2329,41.5847 C69.7499,44.6757 68.8169,48.5437 70.0829,52.9167 C71.1299,56.5367 74.5789,58.7927 79.1829,59.1067 C83.3839,59.3937 87.3019,58.4657 90.8159,56.1407 C92.1789,55.2377 93.0169,55.0207 94.3489,56.4417 C98.0529,60.3977 104.3609,59.8757 107.7549,55.5777 C108.1879,55.0297 108.5669,54.5047 108.2369,53.7807" id="Fill-8" fill="#231F20"></path>
                <path d="M202.8528,34.3933 C203.1078,31.3433 203.8408,28.4683 205.9228,26.1373 C209.4738,22.1603 215.3538,23.4253 217.0288,28.4603 C217.6698,30.3873 217.7598,32.3683 217.8628,34.3663 C217.9318,35.7113 217.3468,36.1033 216.0888,36.0593 C214.0938,35.9893 212.0958,36.0403 210.0978,36.0413 C208.2678,36.0423 206.4348,35.9923 204.6058,36.0593 C203.3738,36.1053 202.7358,35.7893 202.8528,34.3933 M224.8458,49.8463 C223.4708,51.1903 221.9558,52.3653 220.1978,53.1653 C212.2498,56.7853 202.6008,50.1183 202.9198,41.2893 C202.9748,39.7883 203.8438,39.7683 204.9008,39.7703 C208.3138,39.7763 211.7258,39.7723 215.1388,39.7693 C218.4678,39.7693 221.7998,39.6933 225.1248,39.7983 C227.0408,39.8593 227.7568,39.3053 227.6478,37.2413 C227.2688,30.0523 222.8828,23.6953 216.3758,21.2433 C209.7828,18.7583 202.5588,20.5953 197.5028,26.0423 C190.3598,33.7393 189.9588,46.1263 196.6288,53.0913 C204.8928,61.7193 219.1688,61.0883 226.9058,51.7733 C227.4928,51.0663 227.9498,50.4743 227.1608,49.6353 C226.2778,48.6963 225.5868,49.1223 224.8458,49.8463" id="Fill-10" fill="#231F20"></path>
                <g id="Group-14" transform="translate(105.000000, 0.646300)">
                    <mask id="mask-4" fill="white">
                        <use xlink:href="#path-3"></use>
                    </mask>
                    <g id="Clip-13"></g>
                    <path d="M3.1804,63.0238 C4.1194,61.9408 5.5574,61.2538 7.0004,61.4378 C8.7314,61.6588 9.9154,63.1748 11.6454,63.4758 C12.9094,63.6958 15.1394,63.8308 16.1784,62.8848 C17.9434,61.2768 19.0764,57.6958 18.2844,55.9498 C13.9914,46.4758 9.6704,37.0138 5.3644,27.5448 C4.5464,25.7458 3.4874,24.1768 1.4664,23.5918 C0.4834,23.3078 0.0984,22.7088 0.2554,21.7428 C0.4134,20.7628 1.1744,20.6758 1.9584,20.6758 C7.3754,20.6728 12.7914,20.6718 18.2084,20.6788 C19.0074,20.6808 19.7334,20.8558 19.8534,21.8268 C19.9414,22.5438 19.7694,23.1978 19.0184,23.4588 C16.2584,24.4168 16.3994,26.4988 17.2604,28.5538 C19.2534,33.3098 21.4124,37.9958 23.5454,42.6918 C23.9644,43.6158 24.5394,44.1518 25.1464,42.7368 C27.0494,38.3028 29.0964,33.9258 30.8524,29.4348 C31.9484,26.6328 30.9434,24.9058 28.0684,23.8288 C27.1024,23.4668 26.0864,23.1948 26.2984,21.8428 C26.5284,20.3778 27.7134,20.6918 28.6594,20.6718 C33.3214,20.5728 37.9854,20.4128 42.6454,20.4648 C44.7464,20.4888 45.7814,20.1408 45.7564,17.6518 C45.7114,13.2918 47.0784,9.2558 49.9944,5.9198 C56.0044,-0.9572 71.2864,-1.5802 77.8834,4.7138 C79.0104,5.7898 79.7234,7.0888 79.9934,8.5998 C80.3724,10.7258 79.8464,12.6148 78.0764,13.9428 C76.2384,15.3238 74.1854,15.3928 72.1974,14.3108 C70.2404,13.2448 69.5214,11.5128 69.7334,9.2738 C70.0794,5.6158 69.6484,5.1538 66.0284,4.7238 C64.6174,4.5568 63.2134,4.4818 61.7954,4.7108 C58.7134,5.2078 56.6354,7.2068 56.3274,10.3158 C56.1564,12.0438 56.2794,13.8088 56.3554,15.5528 C56.5684,20.4238 56.5864,20.4608 61.5764,20.4128 C66.4064,20.3668 71.2564,20.7638 76.0594,20.1748 C79.5114,19.7518 79.4894,19.5758 79.4904,23.1068 C79.4934,32.1908 79.5144,41.2738 79.4854,50.3568 C79.4774,52.6978 80.1414,54.5038 82.7014,54.9378 C83.8074,55.1258 84.3594,55.5648 84.2284,56.7258 C84.0934,57.9208 83.2034,57.8608 82.3674,57.8618 C77.0344,57.8698 71.7014,57.8638 66.3684,57.8688 C65.4884,57.8698 64.6384,57.8068 64.4774,56.7068 C64.3314,55.7168 64.8384,55.2058 65.7844,54.9078 C67.3594,54.4108 68.3104,53.3508 68.3124,51.6058 C68.3234,43.4398 68.3354,35.2748 68.3454,27.1098 C68.3474,25.3458 67.3904,24.5338 65.6994,24.4978 C63.2004,24.4448 60.7014,24.4408 58.2034,24.3598 C56.8614,24.3168 56.4934,25.0008 56.4974,26.2048 C56.5194,34.2878 56.4574,42.3708 56.5524,50.4528 C56.5784,52.6478 57.4104,54.5818 59.9634,55.0278 C60.9344,55.1978 61.1514,55.8028 61.1024,56.6418 C61.0554,57.4538 60.5994,57.8438 59.8114,57.8438 C53.5624,57.8478 47.3124,57.8458 41.0634,57.8438 C40.1374,57.8438 39.7164,57.3698 39.7094,56.4468 C39.7014,55.5048 40.1824,55.2038 41.0664,55.0388 C44.7334,54.3548 45.4614,53.7878 45.5324,50.2858 C45.6944,42.2068 45.6154,34.1228 45.6344,26.0398 C45.6364,25.2358 45.4804,24.6428 44.5114,24.3958 C40.9134,23.4788 38.1064,24.5168 36.1814,27.7208 C35.4144,28.9968 34.8224,30.3838 34.2234,31.7528 C29.9534,41.5108 25.7184,51.2848 21.4334,61.0368 C19.9724,64.3608 18.7274,67.5728 15.7734,69.8678 C12.8234,72.1598 7.9444,72.9708 4.8794,70.4448 C2.7074,68.6558 1.0484,65.4818 3.1804,63.0238" id="Fill-12" fill="#231F20" mask="url(#mask-4)"></path>
                </g>
            </g>
        </g>
    </g>
</svg>