<?xml version="1.0" encoding="UTF-8"?>
<svg width="312px" height="145px" viewBox="0 0 312 145" version="1.1" xmlns="http://www.w3.org/2000/svg" xmlns:xlink="http://www.w3.org/1999/xlink">
    <!-- Generator: Sketch 57.1 (83088) - https://sketch.com -->
    <title>Group 29</title>
    <desc>Created with Sketch.</desc>
    <g id="Wireframe" stroke="none" stroke-width="1" fill="none" fill-rule="evenodd">
        <g id="Header-Navigation" transform="translate(-40.000000, -567.000000)">
            <g id="Group-29" transform="translate(40.000000, 567.000000)">
                <polygon id="Fill-1" fill="#FFFFFF" points="0 144.613 311.368 144.613 311.368 0.001 0 0.001"></polygon>
                <polygon id="Fill-2" fill="#000000" points="2.894 120.182 308.356 120.182 308.356 52.151 2.894 52.151"></polygon>
                <polygon id="Fill-3" fill="#000000" points="3.012 49.348 308.356 49.348 308.356 4.01 3.012 4.01"></polygon>
                <g id="Group-28" transform="translate(2.000000, 3.613000)">
                    <path d="M37.9806,88.995 C37.6026,88.194 37.4776,87.984 37.4006,87.759 C33.9776,77.592 30.5706,67.42 27.1256,57.261 C26.6926,55.985 26.5116,54.52 24.4746,54.554 C18.3946,54.653 12.3116,54.588 6.2296,54.599 C5.2906,54.6 4.3736,54.609 4.3616,55.986 C4.3506,57.285 5.1966,57.396 6.1476,57.574 C10.3116,58.351 11.3916,59.541 11.4016,63.722 C11.4316,75.385 11.4306,87.049 11.3536,98.712 C11.3256,103.035 10.5076,106.968 5.1556,107.728 C4.1776,107.868 3.7676,108.562 3.8626,109.542 C3.9686,110.637 4.7126,110.837 5.6346,110.836 C10.7996,110.829 15.9646,110.83 21.1306,110.834 C21.9466,110.835 22.6496,110.687 22.7536,109.699 C22.8496,108.785 22.6846,107.975 21.5856,107.857 C16.6246,107.323 15.8046,103.839 15.7916,99.774 C15.7576,88.944 15.7256,78.115 15.7126,67.285 C15.7116,66.674 15.4706,65.945 16.1866,65.484 C16.6436,65.683 16.6766,66.119 16.8106,66.503 C21.6786,80.485 26.5486,94.467 31.4266,108.445 C31.8326,109.609 32.0806,110.906 33.8106,110.841 C35.4106,110.78 35.5366,109.573 35.9056,108.474 C40.7046,94.2 45.5116,79.93 50.3336,65.664 C50.4926,65.191 50.3176,64.427 51.1756,64.374 C51.7566,64.935 51.5426,65.637 51.5436,66.263 C51.5566,77.927 51.5786,89.59 51.5356,101.253 C51.5186,106.028 50.7526,106.907 45.9626,107.932 C44.9996,108.138 44.4346,108.418 44.4876,109.497 C44.5436,110.64 45.2716,110.831 46.1896,110.832 C53.9376,110.832 61.6856,110.831 69.4336,110.84 C70.3526,110.841 71.1116,110.663 71.2116,109.56 C71.3216,108.334 70.5676,108.106 69.5346,107.91 C65.1546,107.078 64.1616,106.11 64.1326,101.856 C64.0476,89.027 64.0496,76.197 64.1376,63.368 C64.1656,59.317 65.1746,58.376 69.2416,57.683 C70.2786,57.507 71.2606,57.372 71.2246,55.971 C71.1856,54.432 70.0506,54.596 69.0726,54.594 C63.3246,54.579 57.5756,54.629 51.8276,54.561 C50.2816,54.543 49.5996,55.245 49.1606,56.599 C48.1616,59.686 47.0816,62.747 46.0206,65.814 C43.4136,73.345 40.7976,80.873 37.9806,88.995" id="Fill-4" fill="#FFFFFF"></path>
                    <path d="M250.3205,79.6093 C250.3205,75.7783 250.3205,71.9473 250.3205,68.1163 C250.3195,63.8683 250.3295,59.6213 250.3045,55.3733 C250.2995,54.3823 250.3965,53.1693 248.7365,53.6573 C244.2685,54.9693 239.8025,56.2883 235.3405,57.6183 C234.5665,57.8493 234.0235,58.3023 234.034336,59.2153 C234.0455,60.0813 234.4145,60.6413 235.2785,60.8343 C238.2995,61.5063 239.0565,63.8443 239.2625,66.4583 C239.4135,68.3623 239.3315,70.2873 239.3315,72.2023 C239.3345,82.2793 239.3495,92.3573 239.3175,102.4343 C239.3055,106.0663 238.7995,106.7633 235.4305,108.0503 C234.6315,108.3563 234.4485,108.8683 234.4815,109.5763 C234.5175,110.3593 234.9375,110.7953 235.7415,110.8203 C235.9915,110.8283 236.2405,110.8443 236.4905,110.8443 C241.9875,110.846609 247.4845,110.8483 252.9815,110.8443 C253.8145,110.8433 254.7365,110.9253 254.9505,109.8013 C255.1035,109.0033 254.9765,108.1953 254.0045,108.0823 C250.5975,107.6843 250.3225,105.2503 250.3235,102.5953 C250.3265,94.9333 250.3245,87.2713 250.3205,79.6093" id="Fill-6" fill="#FFFFFF"></path>
                    <path d="M280.5553,106.1805 C278.3253,107.4305 275.2163,106.8195 273.3853,104.9895 C270.5053,102.1105 269.6593,98.3275 269.2143,94.5145 C268.7283,90.3465 268.9603,86.1655 270.8643,82.2935 C273.5453,76.8395 280.2833,76.1505 284.1093,80.8675 C284.6513,81.5345 284.5953,82.2525 284.5983,82.9875 C284.6123,85.9865 284.6043,88.9855 284.6043,91.9855 C284.6053,94.7345 284.4393,97.4955 284.6483,100.2295 C284.8923,103.4305 282.8153,104.9145 280.5553,106.1805 M300.1193,108.0915 C295.7003,107.0925 295.4653,103.7105 295.4693,100.1325 C295.4823,85.7225 295.4743,71.3125 295.4733,56.9025 C295.4733,56.2355 295.4553,55.5695 295.4673,54.9035 C295.4883,53.6325 294.8893,53.3325 293.7183,53.6485 C289.3013,54.8365 284.8763,55.9945 280.4463,57.1345 C279.5573,57.3645 278.9073,57.7005 278.8773,58.7505 C278.8463,59.8565 279.6083,60.1315 280.4423,60.3645 C281.8593,60.7595 283.2073,61.4085 283.7113,62.8335 C285.2653,67.2305 284.4943,71.7355 284.4813,76.5165 C283.7133,76.0795 283.3443,75.9025 283.0083,75.6735 C273.0373,68.8965 262.9043,75.4055 259.6783,82.8005 C257.7403,87.2445 257.3743,91.8425 257.9313,96.5065 C259.2473,107.5085 269.1503,114.1445 279.1383,110.9045 C281.0423,110.2855 282.5793,109.0105 284.2873,108.0175 C284.8123,108.9465 284.5433,109.7925 284.6093,110.6025 C284.6713,111.3675 284.9163,111.9305 285.7963,111.8365 C290.4343,111.3415 295.0753,110.9015 299.7443,110.8335 C300.4303,110.8245 300.8113,110.3885 300.8813,109.7335 C300.9543,109.0485 300.9333,108.2755 300.1193,108.0915" id="Fill-8" fill="#FFFFFF"></path>
                    <path d="M96.7189,96.9091 C96.7189,97.8241 96.7179,98.7381 96.7189,99.6521 C96.7209,103.0131 95.1559,105.2461 92.0069,106.3731 C88.1409,107.7561 85.1539,105.7961 84.8579,101.6821 C84.4379,95.8481 89.5609,90.6161 95.4039,90.8421 C96.3939,90.8801 96.7359,91.2541 96.7249,92.1721 C96.7059,93.7511 96.7199,95.3301 96.7189,96.9091 M112.0859,106.3131 C111.8299,105.7541 111.3109,105.7051 110.8099,105.7911 C108.1639,106.2451 107.6519,104.5591 107.6179,102.5361 C107.5629,99.1241 107.6029,95.7101 107.6029,92.2971 L107.4719,92.2971 C107.4719,89.0511 107.5649,85.8021 107.4479,82.5601 C107.2979,78.3831 105.1769,75.4261 101.2369,74.0851 C94.6599,71.8471 88.1089,72.2601 81.7609,75.0131 C79.4309,76.0251 77.5629,77.7011 76.5929,80.1771 C75.3859,83.2521 77.3119,86.5061 80.5699,86.7231 C83.1969,86.8981 84.6929,85.1861 85.7579,83.1031 C86.6259,81.4061 87.1769,79.5461 88.0579,77.8571 C89.0039,76.0421 90.7059,75.3001 92.6809,75.6481 C94.5459,75.9761 95.8219,77.1411 96.1549,79.1001 C96.3779,80.4101 96.6109,81.7291 96.6799,83.0531 C96.8749,86.7421 96.8429,86.7431 93.2919,87.4901 C92.3969,87.6791 91.4949,87.8401 90.6099,88.0681 C85.7609,89.3201 80.9519,90.6821 77.0819,94.1171 C73.5989,97.2091 72.6659,101.0761 73.9319,105.4491 C74.9799,109.0691 78.4279,111.3251 83.0319,111.6391 C87.2329,111.9271 91.1509,110.9981 94.6649,108.6731 C96.0279,107.7701 96.8659,107.5531 98.1979,108.9741 C101.9019,112.9301 108.2099,112.4081 111.6039,108.1101 C112.0369,107.5621 112.4159,107.0371 112.0859,106.3131" id="Fill-10" fill="#FFFFFF"></path>
                    <path d="M206.7018,86.9257 C206.9568,83.8747 207.6898,81.0007 209.7718,78.6697 C213.3228,74.6927 219.2028,75.9577 220.8778,80.9927 C221.5188,82.9197 221.6088,84.9017 221.7118,86.8987 C221.7808,88.2427 221.1958,88.6357 219.9378,88.5917 C217.9438,88.5217 215.9448,88.5727 213.9468,88.5727 C212.1168,88.5737 210.2838,88.5247 208.4548,88.5917 C207.2228,88.6377 206.5848,88.3217 206.7018,86.9257 M228.6948,102.3787 C227.3198,103.7227 225.8048,104.8977 224.0468,105.6977 C216.0988,109.3177 206.4498,102.6517 206.7688,93.8217 C206.8238,92.3207 207.6928,92.3007 208.7498,92.3027 C212.1628,92.3087 215.5758,92.3047 218.9878,92.3017 C222.3168,92.3017 225.6488,92.2257 228.9738,92.3307 C230.8898,92.3917 231.6058,91.8377 231.4968,89.7737 C231.1178,82.5847 226.7318,76.2277 220.2248,73.7757 C213.6318,71.2907 206.4078,73.1277 201.3518,78.5747 C194.2088,86.2727 193.8078,98.6587 200.4778,105.6237 C208.7418,114.2517 223.0178,113.6207 230.7548,104.3057 C231.3418,103.5987 231.7988,103.0067 231.0098,102.1677 C230.1268,101.2287 229.4358,101.6547 228.6948,102.3787" id="Fill-12" fill="#FFFFFF"></path>
                    <path d="M109.2907,116.6766 C110.1947,116.6766 111.0887,116.7556 111.8887,116.0796 C114.1887,114.1376 116.4917,114.1226 118.8847,116.0536 C120.1387,117.0656 124.0567,116.9476 125.0277,116.0636 C126.7927,114.4556 127.9247,110.8746 127.1337,109.1286 C122.8407,99.6546 118.5197,90.1926 114.2137,80.7236 C113.3957,78.9246 112.3367,77.3556 110.3157,76.7716 C109.3327,76.4876 108.9477,75.8876 109.1037,74.9206 C109.2627,73.9416 110.0237,73.8546 110.8077,73.8546 C116.2247,73.8516 121.6407,73.8506 127.0577,73.8586 C127.8557,73.8596 128.5827,74.0336 128.7027,75.0056 C128.7907,75.7226 128.6187,76.3766 127.8677,76.6376 C125.1067,77.5956 125.2487,79.6776 126.1087,81.7326 C128.1027,86.4886 130.2617,91.1746 132.3947,95.8706 C132.8137,96.7946 133.3887,97.3306 133.9957,95.9156 C135.8977,91.4816 137.9457,87.1046 139.7017,82.6136 C140.7977,79.8116 139.7927,78.0846 136.9167,77.0076 C135.9517,76.6456 134.9357,76.3736 135.1477,75.0216 C135.3777,73.5576 136.5627,73.8696 137.5087,73.8506 C142.1707,73.7516 146.8337,73.5916 151.4947,73.6436 C153.5957,73.6666 154.6307,73.3206 154.6047,70.8306 C154.5607,66.4706 155.9277,62.4346 158.8437,59.0986 C164.8537,52.2216 180.1357,51.5986 186.7317,57.8926 C187.8597,58.9686 188.5727,60.2676 188.8427,61.7796 C189.2217,63.9056 188.6957,65.7926 186.9257,67.1216 C185.0867,68.5026 183.0347,68.5716 181.0467,67.4886 C179.0897,66.4236 178.3707,64.6926 178.5827,62.4516 C178.9287,58.7946 178.4977,58.3326 174.8777,57.9036 C173.4657,57.7356 172.0617,57.6606 170.6447,57.8896 C167.5617,58.3866 165.4837,60.3856 165.1767,63.4936 C165.0057,65.2226 165.1287,66.9876 165.2047,68.7316 C165.4167,73.6026 165.4357,73.6396 170.4257,73.5916 C175.2547,73.5446 180.1047,73.9436 184.9087,73.3536 C188.3597,72.9306 188.3387,72.7546 188.3397,76.2856 C188.3417,85.3686 188.3637,94.4516 188.3337,103.5346 C188.3267,105.8766 188.9907,107.6836 191.5497,108.1166 C192.6567,108.3046 193.2087,108.7426 193.0777,109.9046 C192.9417,111.0996 192.0527,111.0396 191.2167,111.0406 C185.8827,111.0486 180.5497,111.0426 175.2167,111.0476 C174.3377,111.0486 173.4877,110.9856 173.3267,109.8856 C173.1807,108.8956 173.6877,108.3836 174.6327,108.0856 C176.2087,107.5896 177.1597,106.5306 177.1617,104.7836 C177.1717,96.6186 177.1847,88.4536 177.1947,80.2876 C177.1967,78.5246 176.2397,77.7126 174.5477,77.6766 C172.0497,77.6226 169.5497,77.6186 167.0527,77.5386 C165.7107,77.4956 165.3427,78.1786 165.3467,79.3836 C165.3687,87.4666 165.3067,95.5496 165.4017,103.6316 C165.4277,105.8256 166.2597,107.7606 168.8127,108.2066 C169.7837,108.3766 169.9997,108.9826 169.9517,109.8216 C169.9047,110.6326 169.4487,111.0226 168.6607,111.0236 C162.4117,111.0266 156.1617,111.0256 149.9127,111.0226 C148.9867,111.0226 148.5657,110.5486 148.5587,109.6256 C148.5507,108.6836 149.0317,108.3826 149.9157,108.2176 C153.5827,107.5326 154.3107,106.9666 154.3807,103.4646 C154.5427,95.3856 154.4647,87.3006 154.4837,79.2186 C154.4857,78.4146 154.3297,77.8216 153.3597,77.5736 C149.7627,76.6566 146.9557,77.6966 145.0307,80.8996 C144.2637,82.1756 143.6717,83.5626 143.0727,84.9316 C138.8027,94.6896 134.5677,104.4636 130.2827,114.2156 C129.1937,116.6936 129.1297,116.6786 131.8357,116.6786" id="Fill-14" fill="#FFFFFF"></path>
                    <path d="M306.3556,119.3602 L287.5626,119.3602 L287.5626,119.3692 C234.8816,119.4142 182.2006,119.4122 129.5196,119.3852 C127.9276,119.3852 126.7146,119.6342 125.6606,121.0292 C124.4506,122.6302 122.7126,123.7002 120.7926,124.4052 C116.0446,126.1472 112.4386,124.8612 110.2416,120.4642 C109.6846,119.3492 108.8826,119.4152 107.9816,119.4152 C78.5506,119.4112 49.1186,119.4122 19.6866,119.3872 L19.6866,119.3602 L0.8936,119.3602 L0.8936,138.1532 L19.6866,138.1532 L153.6036,138.1532 L249.8246,138.1532 C267.6526,138.1532 285.4816,138.1062 303.3096,138.208326 C303.6736,138.2102 303.9866,138.1882 304.2756,138.1532 L306.3556,138.1532 L306.3556,119.3602 Z" id="Fill-16" fill="#000000"></path>
                    <path d="M91.0036,5.8456 C91.3016,6.4296 91.5386,7.0326 91.6536,7.6306 C92.3086,11.0296 92.7796,14.9746 91.9886,18.3916 C90.7366,23.7966 87.1156,26.7586 81.5316,26.9576 C79.7016,27.0236 77.8666,26.9986 76.0346,26.9536 C74.9206,26.9266 74.1346,27.2666 74.4206,28.4976 C75.2116,31.9056 76.1586,35.2676 78.5976,37.9476 C78.9616,38.3466 79.3296,38.9976 80.0196,38.6946 C80.5726,38.4516 80.3756,37.8316 80.4116,37.3596 C80.8166,32.0466 83.6846,28.3976 88.2796,26.0596 C92.5656,23.8796 96.9526,21.9006 101.2846,19.8116 C105.1646,17.9406 108.4566,15.3546 110.8816,11.7496 C111.5486,10.7596 111.9706,9.9786 113.2016,11.4376 C121.3016,21.0396 120.2526,35.8316 109.0786,43.0176 C105.7636,45.1506 97.1886,45.8846 93.3666,42.1676 C91.5636,40.4136 90.7206,38.3976 91.0036,35.9076 C91.0226,35.7446 91.1286,35.5926 91.1456,35.4306 C91.3456,33.4846 92.0616,31.3166 89.8176,30.0916 C88.4906,29.3676 85.1556,31.6166 84.3986,33.6816 C83.3186,36.6236 83.7736,39.5726 84.6316,42.4896 C84.9336,43.5156 85.5226,44.4796 85.3236,45.6166 L79.0066,45.6406 C78.2756,44.9796 77.5196,44.3446 76.8176,43.6536 C72.5356,39.4316 71.4456,33.8786 70.4396,28.2936 C70.3296,27.6826 70.7006,26.7816 69.8226,26.5956 C68.8076,26.3796 68.6286,27.3656 68.4456,28.0326 C67.0556,33.0806 63.6736,36.7536 59.9316,40.0946 C57.6476,42.1336 54.8316,43.2736 51.6786,42.6176 C44.7316,41.1756 40.5566,36.6146 38.4436,30.1126 C36.5416,24.2576 37.3326,18.2436 38.2366,12.3376 C39.2346,5.8246 35.8066,1.4506 29.7226,1.9526 C26.0536,2.2556 23.5786,4.6526 23.9716,7.5226 C24.5296,11.6096 27.3586,13.8836 31.1756,13.2956 C31.7186,13.2126 32.3316,12.7256 32.7116,13.4646 C33.0436,14.1106 32.4876,14.5316 32.1246,14.9766 C28.8596,18.9816 21.4926,17.9446 18.7156,13.0936 C16.4676,9.1656 15.8686,4.9976 16.8536,0.5906 C17.5046,0.5106 18.1556,0.3626 18.8066,0.3616 C41.3566,0.3496 63.9076,0.3506 86.4576,0.3626 C87.2956,0.3626 89.0356,2.8476 89.5256,3.5236 C90.0286,4.2176 90.5786,5.0136 91.0036,5.8456" id="Fill-18" fill="#464646"></path>
                    <path d="M236.8488,39.7733 C235.4838,37.1853 233.3628,36.0823 230.5948,35.9813 C228.0568,35.8903 227.2268,37.0083 228.1408,39.3803 C228.6428,40.6873 229.3738,41.9083 230.0318,43.1523 C230.7458,44.5033 230.7338,45.6403 230.7338,45.6403 L200.8168,45.6403 C199.7338,43.7193 199.6098,43.0043 199.6098,43.0043 C198.1738,39.0563 198.0588,35.0713 198.8928,30.9933 C199.1738,29.6173 199.7388,29.3233 200.9478,30.0173 C206.5548,33.2383 212.6028,33.2303 218.8108,32.6553 C222.8528,32.2813 226.9498,32.1513 231.0018,32.7823 C234.7448,33.3643 237.6388,35.2713 239.6328,38.5193 C239.9638,39.0593 240.1458,39.9103 240.9768,39.7973 C241.8628,39.6763 242.1108,38.7753 242.2028,38.0953 C242.6678,34.6733 242.4428,31.2973 241.1588,28.0473 C240.8818,27.3473 240.5598,27.0953 240.1788,27.0963 C239.7978,27.0963 239.3568,27.3483 238.8408,27.6553 C235.6968,29.5233 232.4888,31.0523 228.6158,31.0573 C223.4368,31.0643 220.6228,27.8643 218.7828,23.8773 C216.6658,19.2953 215.1748,14.3913 216.3818,9.1663 C217.0038,6.4733 217.9168,3.9143 219.9728,1.9433 C220.4138,1.5203 220.2948,1.0443 220.3578,0.5693 C220.8428,0.4953 221.3278,0.3563 221.8128,0.3553 C236.7788,0.3453 251.7448,0.3463 266.7098,0.3613 C267.2778,0.3613 267.8458,0.5083 268.4128,0.5873 C268.2698,1.5223 268.9318,2.0683 269.3668,2.7723 C273.8408,10.0143 276.3798,17.4273 271.8278,25.7163 C269.0408,30.7903 264.6068,33.0623 258.9698,31.7463 C256.0018,31.0533 253.1328,29.9333 250.5318,28.3383 C249.2278,27.5403 247.9948,26.6263 246.8488,25.6133 C246.3488,25.1693 244.5388,22.8823 243.9218,24.0293 C243.3758,25.0443 245.1998,28.1043 245.5068,29.1323 C246.0278,30.8783 246.4918,32.7723 246.6358,34.5933 C246.6358,34.5933 247.2338,42.1443 245.3168,45.2273 L238.6498,45.2273 L236.8488,39.7733 Z" id="Fill-20" fill="#464646"></path>
                    <path d="M156.0031,38.7069 C156.7241,36.4229 155.6051,36.2839 153.9041,36.5769 C153.1701,36.7039 152.4401,36.8589 151.7131,37.0259 C150.6341,37.2749 149.3351,37.6399 149.1721,38.7449 C149.0101,39.8539 150.4881,39.6959 151.2141,40.0859 C153.8781,41.5189 155.1501,43.3609 154.8171,45.6229 C154.5301,45.8369 154.2411,45.8369 153.9521,45.6249 C151.8981,41.8519 150.0171,40.8319 146.2111,41.5209 C143.7321,41.9699 142.6751,44.3569 140.7841,45.6159 L136.4001,45.6409 C136.6501,45.1369 137.9211,43.7489 137.9211,43.7489 C141.2281,40.1939 141.9421,35.4359 143.7191,31.1729 C143.9851,30.5359 143.9601,29.8279 143.3941,29.3209 C142.6721,28.6749 141.9531,29.1379 141.3271,29.5039 C138.8241,30.9669 136.3191,31.6909 133.5691,30.0689 C131.7541,28.9979 130.8561,27.7229 131.7731,25.5579 C132.1811,24.5949 132.6801,23.5309 132.0941,22.4319 C129.1521,16.9119 131.9411,14.1999 137.2531,10.5869 C138.8691,9.4879 140.8371,9.2539 142.7891,9.4819 C144.6631,9.7009 146.0661,9.1229 147.4421,7.7439 C149.8541,5.3289 152.8141,3.9589 156.3611,3.9389 C158.6921,3.9269 159.8811,5.2869 160.6441,7.1169 C161.2111,8.4759 161.0131,9.8109 159.8371,10.9949 C158.2171,12.6279 156.3291,12.6809 154.3071,12.2879 C154.0531,12.2389 153.6951,11.8679 153.6781,11.6259 C153.6381,11.0749 154.1381,11.0409 154.5571,11.0279 C155.0571,11.0129 155.5591,10.9949 156.0571,11.0229 C158.0421,11.1379 158.5671,9.8879 158.3311,8.3049 C158.0861,6.6539 156.8301,6.2299 155.3181,6.5479 C153.0251,7.0289 151.5681,8.7469 150.2911,10.4409 C147.7971,13.7489 146.1081,17.4239 146.3881,21.7469 C146.6961,26.5249 146.0041,31.1919 144.6971,35.7799 C144.6071,36.0969 144.5141,36.4169 144.4791,36.7409 C144.4641,36.8799 144.5931,37.0349 144.7621,37.4299 C144.5191,36.8629 150.2351,34.8399 150.8021,34.6869 C152.9381,34.1149 154.5811,34.3259 156.6921,34.5559 C156.8561,34.2079 156.7941,33.8579 156.5741,33.5319 C156.3661,33.2229 156.0591,32.9959 155.7571,32.7759 C153.0581,30.8039 150.0701,28.6749 148.8801,25.3769 C148.0471,23.0679 148.5191,21.0569 149.8951,19.2819 C152.9721,15.3149 157.1071,13.7829 162.0381,14.6479 C164.5631,15.0919 167.1121,15.4369 169.5721,16.2589 C171.4001,16.8679 173.0051,16.2899 174.2921,14.8319 C175.5931,13.3579 175.6871,11.5899 175.1861,9.8919 C174.7851,8.5279 173.6131,7.8969 172.0631,7.9209 C170.1441,7.9499 169.2861,9.1309 168.5521,10.6229 C168.2831,11.1719 168.7101,12.2389 167.7801,12.2279 C166.8641,12.2159 166.4931,11.2599 166.1901,10.4899 C165.4261,8.5529 167.4351,5.0059 169.7851,4.0749 C174.4331,2.2359 179.5321,3.9139 182.3661,8.8759 C185.5741,14.4919 187.3981,20.4979 184.3331,26.9079 C182.6851,30.3539 181.0161,31.7399 175.4001,36.8109 C175.4001,36.8109 178.2331,43.2199 173.4001,45.6409 L156.8161,45.6409 C156.8161,45.6409 154.5231,42.9359 156.0031,38.7069" id="Fill-22" fill="#464646"></path>
                    <path d="M289.9001,45.6405 C291.1501,41.1445 291.8811,36.1745 289.7481,32.9405 C288.1201,30.4715 288.2611,28.4375 289.5681,26.0085 C292.3811,20.7805 293.1571,16.0245 291.9851,10.3945 C290.7331,6.0615 285.8231,3.3785 282.2691,4.2555 C279.2241,5.0065 277.7211,7.0815 277.5521,9.9515 C277.5521,9.9515 276.6501,13.3115 279.9001,17.6445 C279.9001,17.6445 280.4831,18.6445 281.3171,18.3945 C281.3171,18.3945 281.8171,17.8115 281.3171,16.9775 L280.2041,15.1075 C279.7621,13.7795 279.0521,12.5145 279.6181,11.0265 C280.3901,8.9995 282.4391,7.7255 284.2861,8.1845 C286.8811,8.8295 288.3261,10.9115 287.8021,13.6345 C287.3481,15.9965 286.4981,18.2675 285.3321,20.3865 C281.7571,26.8795 276.8371,31.8535 269.4811,33.8525 C262.2481,35.8185 255.7861,39.3285 249.5511,43.3615 C249.5511,43.3615 247.6501,44.7195 246.8171,45.6405 L252.7741,45.6425 C253.8821,44.0875 255.6261,43.4255 257.2321,42.6465 C258.2391,42.1585 259.3701,42.3065 259.9581,43.5895 C259.9581,43.5895 260.0671,44.8025 260.1501,45.6405 L289.9001,45.6405" id="Fill-24" fill="#464646"></path>
                    <path d="M26.7751,45.6132 L24.6321,42.5512 C22.9251,39.4982 21.0611,36.5862 21.3421,32.8342 C21.5861,29.5762 24.3141,26.3832 27.4751,25.9812 C30.9101,25.5452 33.6931,27.4422 34.7911,30.9462 C35.5031,33.2202 35.4661,35.4532 34.4271,37.9802 C33.5451,36.3482 33.7491,34.7542 33.4881,33.3092 C33.1091,31.2132 32.0381,29.9962 30.0351,29.6062 C28.1081,29.2312 26.8611,30.3852 25.9531,31.8482 C24.9191,33.5142 25.1021,35.2502 26.3941,36.6962 C28.1021,38.6072 29.9361,40.7352 32.1371,42.0972 C33.9441,43.2162 35.4911,45.0412 37.5371,45.7832 L26.7751,45.6132 Z" id="Fill-26" fill="#464646"></path>
                </g>
            </g>
        </g>
    </g>
</svg>