<?xml version="1.0" encoding="UTF-8"?>
<svg width="298px" height="72px" viewBox="0 0 298 72" version="1.1" xmlns="http://www.w3.org/2000/svg" xmlns:xlink="http://www.w3.org/1999/xlink">
    <!-- Generator: Sketch 57.1 (83088) - https://sketch.com -->
    <title>Group 16</title>
    <desc>Created with Sketch.</desc>
    <defs>
        <polygon id="path-1" points="0 0.374352131 67.3768602 0.374352131 67.3768602 56.6643186 0 56.6643186"></polygon>
        <polygon id="path-3" points="0.845544049 0.354 44.0597028 0.354 44.0597028 58.6681595 0.845544049 58.6681595"></polygon>
        <polygon id="path-5" points="0.221631391 0.354 84.2473971 0.354 84.2473971 72 0.221631391 72"></polygon>
    </defs>
    <g id="Desktop" stroke="none" stroke-width="1" fill="none" fill-rule="evenodd">
        <g id="Commercial" transform="translate(-234.000000, -244.000000)">
            <g id="Group-16" transform="translate(234.000000, 243.000000)">
                <g id="Group-3" transform="translate(0.000000, 1.646300)">
                    <mask id="mask-2" fill="white">
                        <use xlink:href="#path-1"></use>
                    </mask>
                    <g id="Clip-2"></g>
                    <path d="M34.1319,34.8159 C33.7539,34.0149 33.6279,33.8059 33.5519,33.5799 C30.1289,23.4129 26.7209,13.2409 23.2769,3.0819 C22.8439,1.8059 22.6629,0.3419 20.6249,0.374352131 C14.5449,0.4749 8.4629,0.4089 2.3809,0.4199 C1.4409,0.4209 0.5249,0.4299 0.5119,1.8079 C0.5009,3.1069 1.3479,3.2169 2.2979,3.3949 C6.4629,4.1729 7.5429,5.3619 7.5529,9.5429 C7.5819,21.2069 7.5819,32.8699 7.5049,44.5329 C7.4759,48.8559 6.6579,52.7889 1.3059,53.5499 C0.3289,53.6889 -0.0811,54.3839 0.0129,55.3629 C0.1199,56.4579 0.8639,56.6579 1.7859,56.6569 C6.9509,56.6499 12.1159,56.6509 17.2809,56.6549 C18.0969,56.6559 18.8009,56.5089 18.9039,55.5209 C19.0009,54.6069 18.8349,53.7969 17.7359,53.6789 C12.7749,53.1449 11.9549,49.6599 11.9429,45.5959 C11.9089,34.7659 11.8759,23.9359 11.8639,13.1059 C11.8629,12.4949 11.6209,11.7669 12.3379,11.3049 C12.7939,11.5039 12.8269,11.9399 12.9609,12.3239 C17.8299,26.3059 22.6999,40.2879 27.5779,54.2669 C27.9839,55.4309 28.2319,56.7279 29.9609,56.6619 C31.5609,56.6019 31.6869,55.3949 32.0569,54.2959 C36.8549,40.0219 41.6619,25.7509 46.4849,11.4849 C46.6439,11.0129 46.4689,10.2479 47.3269,10.1949 C47.9069,10.7569 47.6939,11.4579 47.6949,12.0839 C47.7079,23.7479 47.7299,35.4109 47.6869,47.0739 C47.6689,51.8499 46.9039,52.7289 42.1139,53.7529 C41.1499,53.9589 40.5849,54.2389 40.6379,55.3179 C40.6939,56.4609 41.4229,56.6519 42.3399,56.6519 C50.0889,56.6529 57.8369,56.6519 65.5839,56.6609 C66.5039,56.6619 67.2629,56.4829 67.3619,55.3819 C67.4729,54.1549 66.7179,53.9279 65.6859,53.7319 C61.3059,52.8989 60.3129,51.9319 60.2839,47.6779 C60.1989,34.8489 60.2009,22.0179 60.2889,9.1899 C60.3169,5.1379 61.3249,4.1969 65.3929,3.5049 C66.4299,3.3289 67.4119,3.1929 67.3759,1.7919 C67.3359,0.2529 66.2009,0.4179 65.2239,0.4149 C59.4749,0.3999 53.7259,0.4499 47.9789,0.3819 C46.4329,0.3639 45.7499,1.0659 45.3119,2.4199 C44.3119,5.5069 43.2329,8.5689 42.1709,11.6349 C39.5639,19.1669 36.9489,26.6939 34.1319,34.8159" id="Fill-1" fill="#000000" mask="url(#mask-2)"></path>
                </g>
                <path d="M246.4712,27.0765 C246.4712,23.2455 246.4722,19.4145 246.4712,15.5835 C246.4702,11.3355 246.4812,7.0885 246.4562,2.8405 C246.4502,1.8505 246.5472,0.6365 244.8872,1.1245 C240.4192,2.4365 235.9532,3.7565 231.4912,5.0865 C230.7172,5.3165 230.1742,5.7695 230.185036,6.6825 C230.1962,7.5485 230.5652,8.1095 231.4292,8.3015 C234.4502,8.9735 235.2072,11.3115 235.4142,13.9255 C235.5642,15.8295 235.4822,17.7545 235.4822,19.6695 C235.4852,29.7465 235.5002,39.8245 235.4682,49.9025 C235.4562,53.5345 234.9502,54.2315 231.5812,55.5185 C230.7822,55.8245 230.6002,56.3355 230.6332,57.0435 C230.6682,57.8265 231.0882,58.2625 231.8922,58.2875 C232.1422,58.2955 232.3922,58.3125 232.6412,58.3125 C238.1382,58.3135 243.6352,58.3165 249.1322,58.3115 C249.9652,58.3115 250.8872,58.3935 251.1012,57.2695 C251.2542,56.4705 251.1272,55.6615 250.1552,55.5485 C246.7492,55.1525 246.4732,52.7175 246.4742,50.0635 C246.4772,42.4015 246.4752,34.7395 246.4712,27.0765" id="Fill-4" fill="#000000"></path>
                <g id="Group-8" transform="translate(253.000000, 0.646300)">
                    <mask id="mask-4" fill="white">
                        <use xlink:href="#path-3"></use>
                    </mask>
                    <g id="Clip-7"></g>
                    <path d="M23.7066,53.0019 C21.4766,54.2519 18.3676,53.6399 16.5366,51.8099 C13.6556,48.9319 12.8096,45.1489 12.3656,41.3349 C11.8796,37.1679 12.1116,32.9869 14.0146,29.1149 C16.6956,23.6609 23.4336,22.9709 27.2596,27.6879 C27.8016,28.3559 27.7456,29.0739 27.7486,29.8089 C27.7636,32.8079 27.7546,35.8069 27.7556,38.8059 C27.7556,41.5549 27.5906,44.3169 27.7996,47.0509 C28.0436,50.2519 25.9656,51.7359 23.7066,53.0019 M43.2706,54.9129 C38.8516,53.9129 38.6166,50.5319 38.6196,46.9539 C38.6336,32.5439 38.6246,18.1339 38.6246,3.7229 C38.6246,3.0569 38.6066,2.3899 38.6176,1.7239 C38.6386,0.4539 38.0406,0.1539 36.8696,0.4699 C32.4526,1.6579 28.0266,2.8159 23.5976,3.9559 C22.7076,4.1849 22.0576,4.5219 22.0286,5.5719 C21.9976,6.6769 22.7596,6.9529 23.5936,7.1849 C25.0096,7.5809 26.3586,8.2289 26.8626,9.6549 C28.4166,14.0509 27.6456,18.5559 27.6316,23.3369 C26.8636,22.9009 26.4946,22.7229 26.1596,22.4949 C16.1886,15.7169 6.0556,22.2259 2.8296,29.6219 C0.8916,34.0659 0.5246,38.6639 1.0826,43.3279 C2.3986,54.3299 12.3016,60.9659 22.2886,57.7259 C24.1936,57.1069 25.7306,55.8319 27.4386,54.8389 C27.9636,55.7679 27.6946,56.6139 27.7596,57.4229 C27.8216,58.1889 28.0676,58.7519 28.9476,58.6579 C33.5856,58.1619 38.2266,57.7229 42.8956,57.6549 C43.5816,57.6459 43.9626,57.2099 44.0326,56.5539 C44.1056,55.8699 44.0846,55.0969 43.2706,54.9129" id="Fill-6" fill="#000000" mask="url(#mask-4)"></path>
                </g>
                <path d="M92.8701,44.3768 C92.8701,45.2908 92.8691,46.2058 92.8701,47.1198 C92.8721,50.4808 91.3071,52.7138 88.1581,53.8408 C84.2921,55.2238 81.3051,53.2638 81.0091,49.1498 C80.5891,43.3158 85.7121,38.0838 91.5551,38.3098 C92.5441,38.3478 92.8871,38.7208 92.8761,39.6388 C92.8571,41.2178 92.8701,42.7978 92.8701,44.3768 M108.2361,53.7808 C107.9811,53.2218 107.4611,53.1728 106.9611,53.2588 C104.3151,53.7128 103.8021,52.0268 103.7691,50.0038 C103.7141,46.5918 103.7541,43.1778 103.7541,39.7648 L103.6221,39.7648 C103.6221,36.5188 103.7161,33.2698 103.5991,30.0278 C103.4491,25.8508 101.3281,22.8938 97.3871,21.5528 C90.8101,19.3148 84.2601,19.7278 77.9121,22.4808 C75.5811,23.4928 73.7141,25.1688 72.7431,27.6448 C71.5371,30.7198 73.4631,33.9728 76.7211,34.1908 C79.3481,34.3658 80.8441,32.6538 81.9091,30.5708 C82.7761,28.8738 83.3281,27.0138 84.2081,25.3248 C85.1551,23.5088 86.8561,22.7678 88.8321,23.1158 C90.6961,23.4438 91.9731,24.6088 92.3061,26.5678 C92.5281,27.8778 92.7611,29.1968 92.8311,30.5198 C93.0261,34.2098 92.9941,34.2108 89.4431,34.9578 C88.5481,35.1468 87.6461,35.3078 86.7611,35.5358 C81.9111,36.7878 77.1031,38.1498 73.2331,41.5848 C69.7501,44.6768 68.8171,48.5428 70.0821,52.9168 C71.1301,56.5368 74.5781,58.7928 79.1831,59.1068 C83.3841,59.3938 87.3021,58.4658 90.8151,56.1408 C92.1791,55.2378 93.0171,55.0208 94.3491,56.4418 C98.0531,60.3978 104.3601,59.8758 107.7551,55.5778 C108.1871,55.0298 108.5671,54.5048 108.2361,53.7808" id="Fill-9" fill="#000000"></path>
                <path d="M202.8526,34.3934 C203.1086,31.3424 203.8406,28.4684 205.9226,26.1374 C209.4736,22.1604 215.3546,23.4254 217.0286,28.4604 C217.6696,30.3874 217.7596,32.3684 217.8626,34.3664 C217.9316,35.7114 217.3466,36.1024 216.0886,36.0594 C214.0946,35.9894 212.0956,36.0404 210.0986,36.0414 C208.2676,36.0414 206.4346,35.9924 204.6066,36.0594 C203.3736,36.1044 202.7356,35.7894 202.8526,34.3934 M224.8456,49.8464 C223.4706,51.1904 221.9556,52.3654 220.1976,53.1654 C212.2496,56.7854 202.6016,50.1194 202.9206,41.2894 C202.9746,39.7874 203.8436,39.7684 204.9006,39.7704 C208.3136,39.7764 211.7266,39.7724 215.1386,39.7684 C218.4676,39.7684 221.7996,39.6924 225.1256,39.7984 C227.0416,39.8594 227.7576,39.3054 227.6476,37.2414 C227.2696,30.0524 222.8826,23.6954 216.3756,21.2434 C209.7826,18.7584 202.5586,20.5954 197.5036,26.0424 C190.3596,33.7394 189.9586,46.1264 196.6296,53.0914 C204.8926,61.7194 219.1686,61.0884 226.9056,51.7734 C227.4936,51.0664 227.9496,50.4744 227.1606,49.6354 C226.2776,48.6964 225.5866,49.1224 224.8456,49.8464" id="Fill-11" fill="#000000"></path>
                <g id="Group-15" transform="translate(105.000000, 0.646300)">
                    <mask id="mask-6" fill="white">
                        <use xlink:href="#path-5"></use>
                    </mask>
                    <g id="Clip-14"></g>
                    <path d="M3.1802,63.0234 C4.1202,61.9404 5.5572,61.2534 7.0002,61.4374 C8.7322,61.6584 9.9152,63.1744 11.6462,63.4754 C12.9092,63.6964 15.1392,63.8314 16.1782,62.8844 C17.9432,61.2774 19.0762,57.6964 18.2842,55.9504 C13.9912,46.4754 9.6702,37.0134 5.3652,27.5444 C4.5462,25.7454 3.4872,24.1764 1.4672,23.5924 C0.4842,23.3084 0.0992,22.7084 0.2552,21.7424 C0.4132,20.7624 1.1742,20.6754 1.9592,20.6754 C7.3752,20.6734 12.7912,20.6714 18.2082,20.6794 C19.0072,20.6804 19.7332,20.8554 19.8532,21.8264 C19.9422,22.5434 19.7692,23.1984 19.0182,23.4584 C16.2582,24.4174 16.3992,26.4994 17.2602,28.5534 C19.2532,33.3094 21.4122,37.9954 23.5452,42.6924 C23.9652,43.6164 24.5392,44.1524 25.1462,42.7374 C27.0492,38.3024 29.0972,33.9254 30.8532,29.4344 C31.9482,26.6324 30.9432,24.9064 28.0682,23.8294 C27.1022,23.4674 26.0862,23.1944 26.2982,21.8424 C26.5282,20.3784 27.7132,20.6914 28.6592,20.6714 C33.3222,20.5724 37.9852,20.4124 42.6452,20.4644 C44.7462,20.4884 45.7812,20.1414 45.7562,17.6524 C45.7122,13.2914 47.0792,9.2554 49.9942,5.9194 C56.0042,-0.9576 71.2862,-1.5806 77.8832,4.7134 C79.0112,5.7894 79.7232,7.0884 79.9932,8.6004 C80.3722,10.7264 79.8472,12.6144 78.0762,13.9434 C76.2382,15.3244 74.1862,15.3924 72.1982,14.3104 C70.2412,13.2444 69.5222,11.5134 69.7342,9.2734 C70.0792,5.6154 69.6482,5.1534 66.0292,4.7244 C64.6172,4.5564 63.2132,4.4824 61.7952,4.7104 C58.7132,5.2084 56.6352,7.2074 56.3272,10.3154 C56.1562,12.0444 56.2792,13.8084 56.3552,15.5524 C56.5682,20.4234 56.5862,20.4604 61.5762,20.4134 C66.4062,20.3664 71.2562,20.7644 76.0592,20.1744 C79.5112,19.7514 79.4892,19.5754 79.4902,23.1074 C79.4932,32.1904 79.5142,41.2734 79.4852,50.3564 C79.4772,52.6984 80.1412,54.5034 82.7012,54.9384 C83.8072,55.1264 84.3602,55.5644 84.2282,56.7254 C84.0932,57.9204 83.2032,57.8614 82.3672,57.8624 C77.0342,57.8694 71.7012,57.8644 66.3682,57.8694 C65.4882,57.8704 64.6382,57.8064 64.4772,56.7074 C64.3322,55.7164 64.8382,55.2054 65.7842,54.9074 C67.3592,54.4114 68.3102,53.3504 68.3122,51.6054 C68.3232,43.4404 68.3352,35.2744 68.3452,27.1094 C68.3472,25.3454 67.3912,24.5334 65.6992,24.4974 C63.2012,24.4444 60.7012,24.4404 58.2032,24.3604 C56.8612,24.3174 56.4942,25.0004 56.4972,26.2044 C56.5192,34.2874 56.4572,42.3714 56.5522,50.4534 C56.5782,52.6474 57.4102,54.5824 59.9642,55.0284 C60.9352,55.1984 61.1512,55.8024 61.1022,56.6414 C61.0552,57.4534 60.5992,57.8434 59.8112,57.8434 C53.5622,57.8474 47.3122,57.8454 41.0632,57.8434 C40.1372,57.8434 39.7172,57.3704 39.7092,56.4474 C39.7012,55.5044 40.1822,55.2034 41.0662,55.0394 C44.7332,54.3544 45.4622,53.7884 45.5322,50.2864 C45.6942,42.2064 45.6162,34.1224 45.6352,26.0404 C45.6372,25.2354 45.4802,24.6424 44.5112,24.3954 C40.9132,23.4784 38.1062,24.5174 36.1812,27.7214 C35.4142,28.9964 34.8232,30.3834 34.2242,31.7524 C29.9532,41.5104 25.7182,51.2854 21.4332,61.0374 C19.9722,64.3614 18.7282,67.5734 15.7742,69.8684 C12.8242,72.1604 7.9442,72.9704 4.8792,70.4454 C2.7082,68.6564 1.0482,65.4814 3.1802,63.0234" id="Fill-13" fill="#000000" mask="url(#mask-6)"></path>
                </g>
            </g>
        </g>
    </g>
</svg>