<?xml version="1.0" encoding="UTF-8"?>
<svg width="35px" height="38px" viewBox="0 0 35 38" version="1.1" xmlns="http://www.w3.org/2000/svg" xmlns:xlink="http://www.w3.org/1999/xlink">
    <!-- Generator: Sketch 57.1 (83088) - https://sketch.com -->
    <title>Group 7</title>
    <desc>Created with Sketch.</desc>
    <defs>
        <polygon id="path-1" points="5.51523141e-05 0.287424 34.8444758 0.287424 34.8444758 35.8395264 5.51523141e-05 35.8395264"></polygon>
        <polygon id="path-3" points="0 0.274563938 26.7287625 0.274563938 26.7287625 1.9998 0 1.9998"></polygon>
    </defs>
    <g id="Desktop" stroke="none" stroke-width="1" fill="none" fill-rule="evenodd">
        <g id="Mayfield_Home" transform="translate(-847.000000, -4061.000000)">
            <g id="Group-2" transform="translate(40.000000, 4007.000000)">
                <g id="Group-7" transform="translate(807.000000, 54.000000)">
                    <g id="Group-3" transform="translate(0.000000, 0.000000)">
                        <mask id="mask-2" fill="white">
                            <use xlink:href="#path-1"></use>
                        </mask>
                        <g id="Clip-2"></g>
                        <path d="M1.41930645,33.0133824 L2.76962903,34.3914624 L0.731725806,35.0930304 L1.41930645,33.0133824 Z M27.8581371,1.4658624 C28.6459194,0.6620544 29.9279355,0.6620544 30.7157177,1.4658624 L33.6881774,4.4990784 C34.0697903,4.8884544 34.2800726,5.4062784 34.2800726,5.9569344 C34.2800726,6.5075904 34.0697903,7.0254144 33.6881774,7.4147904 L31.5224113,9.6246144 L30.9056774,9.3602304 L30.2175323,7.6863744 C30.1890242,7.6166784 30.1345484,7.5613824 30.0662419,7.5320064 L28.4263226,6.8298624 L27.7378952,5.1562944 C27.7093871,5.0865984 27.6549113,5.0313024 27.5866048,5.0022144 L25.9492258,4.3026624 L25.692371,3.6756864 L27.8581371,1.4658624 Z M25.7522097,7.4355264 L26.3226532,8.8222464 C26.3511613,8.8919424 26.4053548,8.9472384 26.4736613,8.9766144 L27.7568065,9.5258304 L7.80793548,29.8802304 C7.50507258,29.6527104 7.21124194,29.6328384 6.96793548,29.6181504 C6.71757258,29.6031744 6.5363629,29.5922304 6.32692742,29.3788224 C6.11777419,29.1651264 6.10704839,28.9802304 6.09237097,28.7244864 C6.07712903,28.4598144 6.05595968,28.1366784 5.78809677,27.8060544 L25.7522097,7.4355264 Z M9.60309677,31.9901184 C9.47918548,31.9644864 9.36091935,31.9558464 9.25281452,31.9495104 C9.0018871,31.9339584 8.82067742,31.9230144 8.61124194,31.7096064 C8.40039516,31.4941824 8.3893871,31.3087104 8.37442742,31.0518144 C8.36172581,30.8335104 8.34620161,30.5748864 8.18983065,30.3053184 L28.1999516,9.8881344 L28.8020081,11.3523264 C28.8305161,11.4220224 28.8849919,11.4773184 28.9530161,11.5064064 L29.463621,11.7252864 L9.60309677,31.9901184 Z M25.2607984,4.1160384 L25.4730565,4.6338624 C25.5015645,4.7035584 25.5560403,4.7591424 25.6243468,4.7885184 L27.2622903,5.4877824 L27.9501532,7.1613504 C27.9789435,7.2310464 28.0331371,7.2863424 28.1011613,7.3157184 L29.7416452,8.0178624 L30.4295081,9.6914304 C30.4582984,9.7611264 30.5124919,9.8167104 30.5805161,9.8457984 L31.0914032,10.0643904 L29.8949113,11.2852224 L29.2778952,11.0211264 L28.5900323,9.3472704 C28.5702742,9.2997504 28.5358387,9.2628864 28.4963226,9.2326464 C28.4884194,9.2219904 28.48475,9.2096064 28.4751532,9.1998144 C28.4167258,9.1404864 28.3399516,9.1145664 28.2634597,9.1180224 L26.7985403,8.4910464 L26.1103952,6.8171904 C26.0816048,6.7474944 26.0274113,6.6919104 25.9588226,6.6628224 L25.9565645,6.6616704 C25.9562823,6.6616704 25.9562823,6.6616704 25.956,6.6616704 L24.3214435,5.9635584 L24.0645887,5.3365824 L25.2607984,4.1160384 Z M23.6330161,5.7769344 L23.8452742,6.2947584 C23.8740645,6.3644544 23.9282581,6.4200384 23.9965645,6.4491264 L25.3530968,7.0282944 L5.34749194,27.4405824 C5.1101129,27.3196224 4.88345968,27.3037824 4.68898387,27.2922624 C4.43833871,27.2775744 4.25741129,27.2669184 4.04769355,27.0532224 C3.83854032,26.8395264 3.82781452,26.6546304 3.81257258,26.3983104 C3.8063629,26.2882944 3.79789516,26.1676224 3.77277419,26.0411904 L23.6330161,5.7769344 Z M3.38156452,27.0774144 C3.43914516,27.2026944 3.52212903,27.3314304 3.64858065,27.4604544 C4.01015323,27.8293824 4.36862097,27.8504064 4.65652419,27.8673984 C4.90604032,27.8820864 5.08640323,27.8927424 5.29414516,28.1044224 C5.50329839,28.3178304 5.51402419,28.5027264 5.52870161,28.7587584 C5.5456371,29.0522304 5.56680645,29.4177024 5.92781452,29.7860544 C6.28882258,30.1544064 6.64700806,30.1757184 6.93491129,30.1932864 C7.18555645,30.2082624 7.36648387,30.2192064 7.57591935,30.4326144 C7.78507258,30.6460224 7.79579839,30.8309184 7.81104032,31.0866624 C7.82825806,31.3807104 7.84970968,31.7470464 8.21212903,32.1168384 C8.3388629,32.2455744 8.46475,32.3305344 8.58753226,32.3892864 L3.36660484,34.1861184 L1.62055645,32.4045504 L3.38156452,27.0774144 Z M0.0828145161,35.7554304 C0.136443548,35.8101504 0.208701613,35.8395264 0.282370968,35.8395264 C0.312572581,35.8395264 0.343056452,35.8346304 0.372693548,35.8245504 L9.77273387,32.5891584 C9.77894355,32.5871424 9.78317742,32.5813824 9.78910484,32.5787904 C9.821,32.5664064 9.84979032,32.5473984 9.87547581,32.5240704 C9.87745161,32.5223424 9.88027419,32.5217664 9.88196774,32.5197504 L30.1672903,11.8220544 C30.1712419,11.8174464 30.1763226,11.8137024 30.1802742,11.8088064 L31.7947903,10.1611584 C31.7990242,10.1565504 31.8038226,10.1528064 31.8077742,10.1479104 L34.0872903,7.8220224 C34.5755968,7.3240704 34.8445887,6.6613824 34.8445887,5.9569344 C34.8445887,5.2524864 34.5755968,4.5900864 34.0872903,4.0918464 L31.1148306,1.0586304 C30.1068871,0.0301824 28.4666855,0.0301824 27.4590242,1.0586304 L25.1651129,3.3992064 C25.1600323,3.4041024 25.1555161,3.4087104 25.151,3.4136064 L23.5364839,5.0606784 C23.53225,5.0652864 23.5277339,5.0693184 23.5237823,5.0739264 L3.27204839,25.7376384 C3.26753226,25.7416704 3.26414516,25.7457024 3.25991129,25.7497344 L3.25370161,25.7566464 C3.24918548,25.7609664 3.24777419,25.7678784 3.24354032,25.7727744 C3.22519355,25.7958144 3.20882258,25.8197184 3.19809677,25.8473664 C3.19499194,25.8551424 3.18821774,25.8603264 3.18567742,25.8678144 L0.0147903226,35.4593664 C-0.0193629032,35.5633344 0.00688709677,35.6779584 0.0828145161,35.7554304 L0.0828145161,35.7554304 Z" id="Fill-1" fill="#000000" mask="url(#mask-2)"></path>
                    </g>
                    <g id="Group-6" transform="translate(0.000000, 36.000000)">
                        <mask id="mask-4" fill="white">
                            <use xlink:href="#path-3"></use>
                        </mask>
                        <g id="Clip-5"></g>
                        <path d="M14.9594878,1.46446667 C16.303151,0.8278 17.7837429,0.827466667 19.1483449,1.47446667 C19.9704673,1.86613333 21.0055592,1.9998 22.0384469,1.9998 C24.2160796,1.9998 26.3826918,1.4038 26.5154878,1.3668 C26.6634367,1.32513333 26.7560082,1.14646667 26.7215694,0.967133333 C26.6874061,0.787466667 26.5383551,0.675133333 26.3912327,0.717466667 C26.3449469,0.730133333 21.7461306,1.99546667 19.3282531,0.8438 C17.8548245,0.145133333 16.2320694,0.145466667 14.7366,0.854133333 C12.3407633,1.9958 7.74167143,0.730133333 7.70668163,0.7208 C4.16775306,-0.4622 0.348079592,1.0738 0.187181633,1.13946667 C0.0430897959,1.1988 -0.0340530612,1.38813333 0.0144367347,1.56246667 C0.063477551,1.7368 0.220242857,1.83046667 0.363783673,1.77113333 C0.401804082,1.7558 4.18786531,0.236133333 7.57140612,1.3668 C7.76674286,1.42146667 12.3823653,2.6918 14.9594878,1.46446667" id="Fill-4" fill="#000000" mask="url(#mask-4)"></path>
                    </g>
                </g>
            </g>
        </g>
    </g>
</svg>