<?xml version="1.0" encoding="UTF-8"?>
<svg width="20px" height="20px" viewBox="0 0 20 20" version="1.1" xmlns="http://www.w3.org/2000/svg" xmlns:xlink="http://www.w3.org/1999/xlink">
    <!-- Generator: Sketch 57.1 (83088) - https://sketch.com -->
    <title>Group 7</title>
    <desc>Created with Sketch.</desc>
    <g id="Symbols" stroke="none" stroke-width="1" fill="none" fill-rule="evenodd">
        <g id="Header-Navigation" transform="translate(-1326.000000, -83.000000)" fill="#000000" fill-rule="nonzero">
            <g id="Group-11" transform="translate(1326.000000, 83.000000)">
                <g id="Group-2">
                    <g id="Group-7">
                        <path d="M9.29433333,6.413 C7.7828,6.413 6.55726667,7.63893333 6.55726667,9.15046667 C6.55726667,10.6622 7.7828,11.8877333 9.29433333,11.8877333 C9.79073333,11.8877333 10.255,11.7537333 10.6563333,11.5225333 C10.8313333,11.4218 10.9936667,11.302 11.1413333,11.1664 C11.1466667,11.1615333 11.1522,11.1567333 11.1574,11.1518667 C11.2044,11.1079333 11.2502667,11.0623333 11.2942,11.0152667 C11.2966,11.0126667 11.2988667,11.0100667 11.3012667,11.0074667 C11.4848667,10.809 11.6394667,10.583 11.7586,10.3362667 C11.9316667,9.97713333 12.0316,9.576 12.0316,9.15046667 C12.0316,7.63893333 10.8062,6.413 9.29433333,6.413 Z" id="Path"></path>
                        <path d="M9.99966667,-5.32907052e-15 C4.47706667,-5.32907052e-15 -3.37507799e-14,4.4772 -3.37507799e-14,9.99966667 C-3.37507799e-14,15.5221333 4.47706667,19.9996667 9.99966667,19.9996667 C15.5222667,19.9996667 19.9996667,15.5221333 19.9996667,9.99966667 C19.9996667,4.4772 15.5222667,-5.32907052e-15 9.99966667,-5.32907052e-15 Z M15.0291333,14.7502667 C14.8710667,14.9086667 14.6638,14.9876667 14.4564667,14.9876667 C14.2491333,14.9876667 14.042,14.9086667 13.8836,14.7502667 L11.6072667,12.4738 C10.9514667,12.9313333 10.1545333,13.2002 9.29413333,13.2002 C7.0576,13.2002 5.24466667,11.3871333 5.24466667,9.1506 C5.24466667,6.91406667 7.0576,5.10113333 9.29413333,5.10113333 C11.5306667,5.10113333 13.3437333,6.91406667 13.3437333,9.1506 C13.3437333,9.94093333 13.1165333,10.6778667 12.7250667,11.3012 L15.0290667,13.6052 C15.3455333,13.9211333 15.3455333,14.4341333 15.0291333,14.7502667 Z" id="Shape"></path>
                    </g>
                </g>
            </g>
        </g>
    </g>
</svg>