<?xml version="1.0" encoding="UTF-8"?>
<svg width="70px" height="43px" viewBox="0 0 70 43" version="1.1" xmlns="http://www.w3.org/2000/svg" xmlns:xlink="http://www.w3.org/1999/xlink">
    <!-- Generator: Sketch 57.1 (83088) - https://sketch.com -->
    <title>Group 23</title>
    <desc>Created with Sketch.</desc>
    <defs>
        <polygon id="path-1" points="0.612346875 0.460714286 48.3873469 0.460714286 48.3873469 43 0.612346875 43"></polygon>
        <polygon id="path-3" points="0 0.8 17.84985 0.8 17.84985 1.8 0 1.8"></polygon>
    </defs>
    <g id="Desktop" stroke="none" stroke-width="1" fill="none" fill-rule="evenodd">
        <g id="Mayfield_Home" transform="translate(-1016.000000, -4058.000000)">
            <g id="Group-2" transform="translate(40.000000, 4007.000000)">
                <g id="Group-23" transform="translate(976.000000, 51.000000)">
                    <path d="M52.5,33 C52.2,33 52,33.1351534 52,33.3378835 L52,37.6621165 C52,37.8655224 52.2,38 52.5,38 C52.8,38 53,37.8655224 53,37.6621165 L53,33.3378835 C53,33.1351534 52.8,33 52.5,33" id="Fill-1" fill="#000000"></path>
                    <path d="M53.5,33 C53.2,33 53,33.1351351 53,33.3378378 L53,37.6621622 C53,37.8648649 53.2,38 53.5,38 C53.8,38 54,37.8648649 54,37.6621622 L54,33.3378378 C53.9,33.1351351 53.7,33 53.5,33" id="Fill-3" fill="#000000"></path>
                    <path d="M62.5369935,29 C62.2369935,29 62.0369935,29.1428571 62.0369935,29.3571429 L62.0369935,33.6428571 L62.0369935,33.715 C62.0369935,33.8571429 62.2369935,34 62.5369935,34 C62.8369935,34 62.9369935,33.8571429 62.9369935,33.6428571 L62.9369935,29.3571429 C63.0369935,29.1428571 62.8369935,29 62.5369935,29" id="Fill-5" fill="#000000"></path>
                    <path d="M60.5,29 C60.199,29 60,29.1408252 60,29.3520631 L60,33.6479369 C60,33.8584706 60.199,34 60.5,34 C60.8,34 61,33.8584706 61,33.6479369 L61,29.3520631 C60.899,29.1408252 60.699,29 60.5,29" id="Fill-7" fill="#000000"></path>
                    <path d="M59.5,30 C59.2,30 59,30.1388889 59,30.3472222 L59,34.6527778 C59,34.8611111 59.2,35 59.5,35 C59.8,35 60,34.8611111 60,34.6527778 L60,30.3472222 C60,30.1388889 59.8,30 59.5,30" id="Fill-9" fill="#000000"></path>
                    <path d="M57.5,31 C57.2,31 57,31.1369863 57,31.3424658 L57,35.6575342 C57,35.8630137 57.2,36 57.5,36 C57.8,36 58,35.8630137 58,35.6575342 L58,31.3424658 C58,31.1369863 57.8,31 57.5,31" id="Fill-11" fill="#000000"></path>
                    <g id="Group-15" transform="translate(21.000000, 0.000000)">
                        <mask id="mask-2" fill="white">
                            <use xlink:href="#path-1"></use>
                        </mask>
                        <g id="Clip-14"></g>
                        <path d="M24.7295344,42.15505 L24.7295344,17.8907643 L32.9982844,14.8961214 L32.9982844,23.5729071 C32.9982844,23.7264786 33.0748469,23.8040321 33.1514094,23.88005 C33.2287375,23.9568357 33.3045344,23.9568357 33.3810969,23.9568357 L33.5342219,23.9568357 L39.5826594,21.73005 C39.73655,21.6532643 39.8123469,21.5764786 39.8123469,21.4229071 L39.8123469,12.4389786 L47.6217219,9.598675 L47.6217219,32.7879607 L24.7295344,42.15505 Z M1.22484688,9.52112143 L24.0412375,17.8907643 L24.0412375,42.15505 L1.22484688,32.7104071 L1.22484688,9.52112143 Z M10.1060969,6.14331786 L32.2326594,14.3586214 L24.3467219,17.1996929 L1.91390938,9.06040714 L10.1060969,6.14331786 Z M33.6873469,14.5897464 L39.0467219,12.59255 L39.0467219,21.0389786 L33.6873469,22.9586214 L33.6873469,14.5897464 Z M16.8435969,3.83974643 L38.5881125,12.1318357 L33.3045344,14.0514786 L11.1779719,5.83540714 L16.8435969,3.83974643 Z M24.42405,1.15224643 L46.8560969,9.06040714 L39.5826594,11.7479071 L17.8389094,3.45581786 L24.42405,1.15224643 Z M48.2342219,9.06040714 L48.2342219,8.90683571 C48.2342219,8.90683571 48.2342219,8.83081786 48.158425,8.83081786 C48.158425,8.83081786 48.0810969,8.83081786 48.0810969,8.75326429 L24.4998469,0.460407143 L24.2701594,0.460407143 L16.6904719,3.14790714 L10.0295344,5.52826429 L0.765471875,8.75326429 C0.765471875,8.75326429 0.688909375,8.75326429 0.688909375,8.83081786 C0.688909375,8.83081786 0.688909375,8.90683571 0.612346875,8.90683571 L0.612346875,9.06040714 L0.612346875,32.9407643 C0.612346875,33.0943357 0.688909375,33.2479071 0.842034375,33.2479071 L24.3467219,43.0004607 L24.4998469,43.0004607 L24.6529719,43.0004607 L48.158425,33.2479071 C48.3107844,33.1718893 48.3873469,33.0943357 48.3873469,32.9407643 L48.3873469,9.06040714 L48.2342219,9.06040714 Z" id="Fill-13" fill="#000000" mask="url(#mask-2)"></path>
                    </g>
                    <g id="Group-18" transform="translate(0.000000, 26.000000)">
                        <mask id="mask-4" fill="white">
                            <use xlink:href="#path-3"></use>
                        </mask>
                        <g id="Clip-17"></g>
                        <path d="M17.47485,0.8 L0.37485,0.8 C0.14985,0.8 -0.00015,1 -0.00015,1.3 C-0.00015,1.6 0.14985,1.8 0.37485,1.8 L17.47485,1.8 C17.69985,1.8 17.84985,1.6 17.84985,1.3 C17.77485,1 17.62485,0.8 17.47485,0.8" id="Fill-16" fill="#000000" mask="url(#mask-4)"></path>
                    </g>
                    <path d="M17.6192893,20 L3.38071066,20 C3.15228426,20 3,20.2 3,20.5 C3,20.8 3.15228426,21 3.38071066,21 L17.6192893,21 C17.8477157,21 18,20.8 18,20.5 C17.9238579,20.2 17.7715736,20 17.6192893,20" id="Fill-19" fill="#000000"></path>
                    <path d="M17.6923077,13 L6.38461538,13 C6.15384615,13 6,13.2 6,13.5 C6,13.8 6.15384615,14 6.38461538,14 L17.6153846,14 C17.8461538,14 18,13.8 18,13.5 C18,13.2 17.8461538,13 17.6923077,13" id="Fill-21" fill="#000000"></path>
                </g>
            </g>
        </g>
    </g>
</svg>